<svg width="656" height="645" viewBox="0 0 656 645" fill="none" xmlns="http://www.w3.org/2000/svg">
<path d="M565.667 309.713C565.667 167.408 450.231 52.0464 307.834 52.0464C165.436 52.0464 49.9999 167.408 49.9999 309.713C49.9999 452.018 165.436 567.379 307.834 567.379C450.231 567.379 565.667 452.018 565.667 309.713Z" fill="#7B4AE2" fill-opacity="0.2"/>
<g filter="url(#filter0_d_21_4106)">
<circle cx="570.143" cy="331.11" r="35.8102" fill="#090E16"/>
</g>
<g clip-path="url(#clip0_21_4106)">
<path fill-rule="evenodd" clip-rule="evenodd" d="M585.251 313.205H555.036C553.491 313.205 552.238 314.458 552.238 316.003V346.218C552.238 347.763 553.491 349.015 555.036 349.015H585.251C586.796 349.015 588.049 347.763 588.049 346.218V316.003C588.049 314.458 586.796 313.205 585.251 313.205ZM573.293 345.112V341.248C573.994 341.836 574.755 342.277 575.577 342.57C576.399 342.864 577.229 343.011 578.066 343.011C578.558 343.011 578.987 342.967 579.353 342.878C579.72 342.79 580.026 342.667 580.272 342.51C580.517 342.353 580.701 342.168 580.821 341.955C580.942 341.741 581.003 341.51 581.003 341.26C581.003 340.922 580.906 340.621 580.713 340.355C580.519 340.089 580.255 339.844 579.921 339.618C579.587 339.393 579.19 339.176 578.731 338.967C578.272 338.757 577.776 338.544 577.245 338.327C575.891 337.763 574.882 337.075 574.218 336.262C573.553 335.449 573.221 334.467 573.221 333.316C573.221 332.415 573.402 331.64 573.765 330.992C574.127 330.344 574.621 329.811 575.245 329.392C575.869 328.974 576.592 328.666 577.414 328.469C578.236 328.271 579.105 328.173 580.024 328.173C580.926 328.173 581.726 328.227 582.422 328.336C583.119 328.444 583.762 328.611 584.35 328.837V332.447C584.06 332.246 583.743 332.068 583.401 331.916C583.059 331.763 582.706 331.636 582.344 331.535C581.981 331.434 581.621 331.36 581.262 331.312C580.904 331.264 580.564 331.239 580.241 331.239C579.798 331.239 579.395 331.282 579.033 331.366C578.67 331.451 578.364 331.569 578.115 331.722C577.865 331.875 577.672 332.058 577.535 332.272C577.398 332.485 577.329 332.724 577.329 332.99C577.329 333.28 577.406 333.539 577.559 333.769C577.712 333.998 577.929 334.216 578.211 334.421C578.493 334.626 578.836 334.827 579.238 335.024C579.641 335.222 580.096 335.425 580.604 335.634C581.297 335.924 581.919 336.232 582.471 336.558C583.022 336.884 583.496 337.252 583.89 337.663C584.285 338.073 584.587 338.542 584.797 339.069C585.006 339.596 585.111 340.21 585.111 340.91C585.111 341.876 584.928 342.687 584.561 343.343C584.195 343.999 583.697 344.53 583.069 344.937C582.441 345.343 581.709 345.635 580.876 345.812C580.042 345.989 579.162 346.078 578.236 346.078C577.285 346.078 576.381 345.997 575.523 345.836C574.665 345.675 573.922 345.434 573.293 345.112ZM571.822 331.634H566.854V345.798H562.918V331.634H557.974V328.452H571.822V331.634Z" fill="#7B4AE2" fill-opacity="0.5"/>
</g>
<g filter="url(#filter1_d_21_4106)">
<circle cx="85.8102" cy="239.794" r="35.8102" fill="#090E16"/>
</g>
<path d="M99.2073 233.496C98.7898 233.352 98.3571 233.216 97.9117 233.088C97.9849 232.789 98.0521 232.494 98.1118 232.204C99.0926 227.443 98.4514 223.608 96.2616 222.345C94.1619 221.134 90.728 222.396 87.2599 225.415C86.9264 225.705 86.592 226.012 86.2577 226.334C86.0349 226.121 85.8126 225.915 85.5908 225.718C81.9561 222.491 78.3129 221.131 76.1253 222.397C74.0276 223.612 73.4064 227.217 74.2893 231.729C74.3745 232.165 74.4742 232.61 74.5869 233.063C74.0712 233.209 73.5735 233.365 73.0972 233.531C68.836 235.017 66.1145 237.345 66.1145 239.76C66.1145 242.255 69.036 244.757 73.4744 246.274C73.8247 246.393 74.1881 246.507 74.5626 246.614C74.4411 247.103 74.3353 247.583 74.2466 248.051C73.4048 252.484 74.0622 256.005 76.1543 257.211C78.3152 258.458 81.9419 257.177 85.4734 254.09C85.7525 253.846 86.0327 253.587 86.3133 253.316C86.677 253.666 87.0402 253.997 87.4014 254.308C90.822 257.252 94.2005 258.441 96.2907 257.231C98.4495 255.981 99.1511 252.199 98.2402 247.598C98.1707 247.246 98.0897 246.887 97.9988 246.522C98.2535 246.447 98.5035 246.369 98.7473 246.288C103.361 244.759 106.364 242.288 106.364 239.76C106.364 237.336 103.554 234.992 99.2073 233.496ZM98.2066 244.656C97.9865 244.729 97.7606 244.799 97.5305 244.868C97.0211 243.255 96.3337 241.54 95.4924 239.769C96.2952 238.039 96.9561 236.346 97.4512 234.744C97.863 234.863 98.2626 234.989 98.6477 235.122C102.372 236.404 104.644 238.3 104.644 239.76C104.644 241.316 102.191 243.336 98.2066 244.656ZM96.5535 247.932C96.9562 249.966 97.0138 251.806 96.747 253.244C96.5073 254.536 96.0252 255.398 95.4291 255.743C94.1607 256.477 91.4481 255.522 88.5227 253.005C88.1874 252.716 87.8496 252.408 87.5107 252.082C88.6448 250.842 89.7783 249.4 90.8845 247.798C92.8303 247.626 94.6685 247.344 96.3356 246.958C96.4177 247.289 96.4906 247.614 96.5535 247.932ZM79.8363 255.616C78.5971 256.053 77.61 256.066 77.0134 255.722C75.7438 254.99 75.216 252.163 75.936 248.371C76.0184 247.937 76.1166 247.491 76.2297 247.035C77.8785 247.4 79.7033 247.662 81.6537 247.82C82.7674 249.387 83.9336 250.828 85.1088 252.089C84.8521 252.337 84.5963 252.573 84.342 252.795C82.7804 254.16 81.2155 255.129 79.8363 255.616ZM74.0305 244.647C72.0679 243.976 70.4471 243.104 69.3362 242.153C68.3379 241.298 67.8339 240.449 67.8339 239.76C67.8339 238.295 70.0189 236.425 73.6632 235.155C74.1054 235.001 74.5682 234.855 75.0486 234.719C75.5522 236.357 76.2129 238.07 77.0103 239.802C76.2026 241.56 75.5325 243.3 75.024 244.958C74.6815 244.859 74.3497 244.756 74.0305 244.647ZM75.9767 231.399C75.2203 227.533 75.7226 224.617 76.9868 223.886C78.3333 223.106 81.3108 224.217 84.4491 227.004C84.6497 227.182 84.851 227.369 85.053 227.561C83.8836 228.817 82.7281 230.247 81.6243 231.804C79.7313 231.98 77.9193 232.262 76.2533 232.639C76.1486 232.218 76.0558 231.804 75.9767 231.399ZM93.3383 235.686C92.94 234.998 92.5312 234.327 92.1143 233.673C93.3985 233.836 94.6289 234.051 95.7844 234.315C95.4375 235.427 95.0051 236.589 94.4962 237.781C94.1311 237.087 93.7449 236.389 93.3383 235.686ZM86.2583 228.79C87.0513 229.649 87.8456 230.609 88.6268 231.65C87.8396 231.612 87.0426 231.593 86.2391 231.593C85.4431 231.593 84.652 231.612 83.8697 231.648C84.6517 230.617 85.4528 229.659 86.2583 228.79ZM79.1329 235.698C78.735 236.388 78.3561 237.083 77.9967 237.779C77.496 236.592 77.0676 235.424 76.7177 234.297C77.8661 234.04 79.0907 233.83 80.3667 233.67C79.944 234.33 79.5318 235.006 79.1329 235.698V235.698ZM80.4035 245.973C79.0851 245.826 77.8421 245.627 76.694 245.377C77.0495 244.229 77.4873 243.036 77.9986 241.823C78.3589 242.519 78.7394 243.215 79.1397 243.906H79.1398C79.5475 244.61 79.9699 245.3 80.4035 245.973ZM86.3058 250.852C85.4909 249.972 84.678 249 83.8842 247.953C84.6548 247.984 85.4405 247.999 86.2391 247.999C87.0594 247.999 87.8704 247.981 88.6687 247.945C87.8849 249.01 87.0935 249.984 86.3058 250.852ZM94.5126 241.761C95.0505 242.988 95.504 244.174 95.8641 245.302C94.6971 245.568 93.4371 245.783 92.1096 245.942C92.5274 245.28 92.9399 244.597 93.3452 243.894C93.7552 243.183 94.1445 242.471 94.5126 241.761ZM91.8558 243.035C91.2266 244.126 90.5807 245.167 89.9249 246.15C88.7306 246.236 87.4967 246.28 86.2391 246.28C84.9865 246.28 83.7682 246.241 82.5949 246.165C81.9128 245.169 81.2528 244.124 80.6276 243.044H80.6278C80.0043 241.968 79.4304 240.881 78.9104 239.802C79.4303 238.719 80.0026 237.632 80.6225 236.557L80.6224 236.557C81.244 235.479 81.8981 234.44 82.574 233.45C83.771 233.36 84.9985 233.312 86.239 233.312H86.2391C87.4851 233.312 88.7142 233.36 89.9108 233.451C90.5764 234.434 91.2261 235.47 91.8501 236.548C92.4812 237.638 93.061 238.718 93.5852 239.777C93.0625 240.855 92.4841 241.945 91.8558 243.035ZM95.4027 223.834C96.7506 224.612 97.2747 227.746 96.4279 231.857C96.3739 232.119 96.313 232.386 96.247 232.657C94.5771 232.272 92.7638 231.985 90.8654 231.807C89.7594 230.232 88.6134 228.8 87.463 227.561C87.7723 227.263 88.0811 226.979 88.3887 226.712C91.3602 224.126 94.1374 223.105 95.4027 223.834ZM86.2391 236.166C88.224 236.166 89.8332 237.775 89.8332 239.76C89.8332 241.745 88.224 243.354 86.2391 243.354C84.2541 243.354 82.645 241.745 82.645 239.76C82.645 237.775 84.2541 236.166 86.2391 236.166Z" fill="#7B4AE2" fill-opacity="0.5"/>
<g filter="url(#filter2_d_21_4106)">
<circle cx="85.8102" cy="468.98" r="35.8102" fill="#090E16"/>
</g>
<g clip-path="url(#clip1_21_4106)">
<path fill-rule="evenodd" clip-rule="evenodd" d="M79.8884 451.074C76.5939 451.074 73.92 453.748 73.92 457.043C73.92 460.337 76.5939 463.011 79.8884 463.011C76.5939 463.011 73.92 465.685 73.92 468.98C73.92 472.274 76.5939 474.948 79.8884 474.948C76.5939 474.948 73.92 477.622 73.92 480.916C73.92 484.211 76.5939 486.885 79.8884 486.885C83.183 486.885 85.8568 484.211 85.8568 480.916L85.8568 468.98C85.8568 472.274 88.5306 474.948 91.8252 474.948C95.1197 474.948 97.7935 472.274 97.7935 468.98C97.7935 465.685 95.1197 463.011 91.8252 463.011C95.1197 463.011 97.7935 460.337 97.7935 457.043C97.7935 453.748 95.1197 451.074 91.8252 451.074H79.8884ZM91.8252 463.011H85.8568L85.8568 468.98C85.8568 465.685 88.5306 463.011 91.8252 463.011Z" fill="#7B4AE2" fill-opacity="0.5"/>
</g>
<g filter="url(#filter3_f_21_4106)">
<circle cx="309.624" cy="305.148" r="255.148" fill="#7B4AE2" fill-opacity="0.2"/>
</g>
<g filter="url(#filter4_i_21_4106)">
<g clip-path="url(#clip2_21_4106)">
<path d="M361.429 434.508V473.454H369.917C454.298 473.454 522.703 541.724 522.703 625.939V645H98.2968V625.939C98.2968 541.724 166.702 473.454 251.083 473.454H259.571V434.508C222.993 417.166 196.7 381.723 192.314 339.777C179.953 338.033 170.446 327.432 170.446 314.614V284.964C170.446 272.372 179.623 261.918 191.666 259.901V246.843C191.666 181.342 244.87 128.243 310.5 128.243C376.13 128.243 429.334 181.342 429.334 246.843V259.901C441.377 261.918 450.554 272.372 450.554 284.964V314.614C450.554 327.432 441.047 338.033 428.686 339.777C424.3 381.723 398.007 417.166 361.429 434.508Z" fill="#D0C6AC"/>
<mask id="mask0_21_4106" style="mask-type:luminance" maskUnits="userSpaceOnUse" x="98" y="128" width="425" height="517">
<path d="M361.429 434.508V473.454H369.917C454.298 473.454 522.703 541.724 522.703 625.939V645H98.2968V625.939C98.2968 541.724 166.702 473.454 251.083 473.454H259.571V434.508C222.993 417.166 196.7 381.723 192.314 339.777C179.953 338.033 170.446 327.432 170.446 314.614V284.964C170.446 272.372 179.623 261.918 191.666 259.901V246.843C191.666 181.342 244.87 128.243 310.5 128.243C376.13 128.243 429.334 181.342 429.334 246.843V259.901C441.377 261.918 450.554 272.372 450.554 284.964V314.614C450.554 327.432 441.047 338.033 428.686 339.777C424.3 381.723 398.007 417.166 361.429 434.508Z" fill="white"/>
</mask>
<g mask="url(#mask0_21_4106)">
<path d="M658.513 128.243H98.2968V721.243H658.513V128.243Z" fill="#EDB98A"/>
</g>
<mask id="mask1_21_4106" style="mask-type:luminance" maskUnits="userSpaceOnUse" x="98" y="128" width="425" height="517">
<path d="M361.429 434.508V473.454H369.917C454.298 473.454 522.703 541.724 522.703 625.939V645H98.2968V625.939C98.2968 541.724 166.702 473.454 251.083 473.454H259.571V434.508C222.993 417.166 196.7 381.723 192.314 339.777C179.953 338.033 170.446 327.432 170.446 314.614V284.964C170.446 272.372 179.623 261.918 191.666 259.901V246.843C191.666 181.342 244.87 128.243 310.5 128.243C376.13 128.243 429.334 181.342 429.334 246.843V259.901C441.377 261.918 450.554 272.372 450.554 284.964V314.614C450.554 327.432 441.047 338.033 428.686 339.777C424.3 381.723 398.007 417.166 361.429 434.508Z" fill="white"/>
</mask>
<g mask="url(#mask1_21_4106)">
<path fill-rule="evenodd" clip-rule="evenodd" d="M429.334 295.554V344.264C429.334 409.765 376.13 462.864 310.5 462.864C244.87 462.864 191.666 409.765 191.666 344.264V295.554V327.321C191.666 392.822 244.87 445.921 310.5 445.921C376.13 445.921 429.334 392.822 429.334 327.321V295.554Z" fill="black" fill-opacity="0.1"/>
</g>
<mask id="mask2_21_4106" style="mask-type:luminance" maskUnits="userSpaceOnUse" x="98" y="439" width="425" height="206">
<path fill-rule="evenodd" clip-rule="evenodd" d="M259.571 439.718C221.547 443.964 192.26 455.562 191.675 485.409C136.804 508.542 98.2968 562.752 98.2968 625.938V645H522.703V625.938C522.703 562.752 484.196 508.542 429.325 485.409C428.74 455.562 399.453 443.964 361.429 439.718V479.807C361.429 507.879 338.627 530.636 310.5 530.636C282.373 530.636 259.571 507.879 259.571 479.807V439.718Z" fill="white"/>
</mask>
<g mask="url(#mask2_21_4106)">
<path d="M590.608 412.036H30.3918V645H590.608V412.036Z" fill="#25557C"/>
</g>
<mask id="mask3_21_4106" style="mask-type:luminance" maskUnits="userSpaceOnUse" x="98" y="439" width="425" height="206">
<path fill-rule="evenodd" clip-rule="evenodd" d="M259.571 439.718C221.547 443.964 192.26 455.562 191.675 485.409C136.804 508.542 98.2968 562.752 98.2968 625.938V645H522.703V625.938C522.703 562.752 484.196 508.542 429.325 485.409C428.74 455.562 399.453 443.964 361.429 439.718V479.807C361.429 507.879 338.627 530.636 310.5 530.636C282.373 530.636 259.571 507.879 259.571 479.807V439.718Z" fill="white"/>
</mask>
<g mask="url(#mask3_21_4106)">
<path fill-rule="evenodd" clip-rule="evenodd" d="M246.839 542.79V645H231.985V535.19C236.661 537.964 241.633 540.507 246.839 542.79ZM389.015 535.19V620.645C389.015 624.738 385.69 628.057 381.588 628.057C377.486 628.057 374.161 624.738 374.161 620.645V542.79C379.367 540.507 384.339 537.964 389.015 535.19Z" fill="#F4F4F4"/>
</g>
<mask id="mask4_21_4106" style="mask-type:luminance" maskUnits="userSpaceOnUse" x="98" y="439" width="425" height="206">
<path fill-rule="evenodd" clip-rule="evenodd" d="M259.571 439.718C221.547 443.964 192.26 455.562 191.675 485.409C136.804 508.542 98.2968 562.752 98.2968 625.938V645H522.703V625.938C522.703 562.752 484.196 508.542 429.325 485.409C428.74 455.562 399.453 443.964 361.429 439.718V479.807C361.429 507.879 338.627 530.636 310.5 530.636C282.373 530.636 259.571 507.879 259.571 479.807V439.718Z" fill="white"/>
</mask>
<g mask="url(#mask4_21_4106)">
<path fill-rule="evenodd" clip-rule="evenodd" d="M223.412 438.984C191.474 445.013 169.385 457.025 169.385 480.459C169.385 522.207 239.492 556.05 310.5 556.05C381.508 556.05 451.615 522.207 451.615 480.459C451.615 457.025 429.526 445.013 397.588 438.984C416.867 446.079 429.334 458.006 429.334 477.852C429.334 521.04 370.296 556.05 310.5 556.05C250.704 556.05 191.666 521.04 191.666 477.852C191.666 458.006 204.133 446.079 223.412 438.984Z" fill="black" fill-opacity="0.16"/>
</g>
<path d="M280.792 369.679C280.792 381.055 293.859 388.739 310.5 388.739C327.141 388.739 340.208 381.055 340.208 369.679C340.208 367.339 338.193 365.443 335.964 365.443C333.221 365.443 331.997 367.36 331.72 369.679C329.084 375.901 322.56 379.667 310.5 380.268C298.44 379.667 291.916 375.901 289.28 369.679C289.003 367.36 287.779 365.443 285.036 365.443C282.807 365.443 280.792 367.339 280.792 369.679Z" fill="black" fill-opacity="0.6"/>
<path fill-rule="evenodd" clip-rule="evenodd" d="M285.036 327.321C285.036 336.679 296.436 344.264 310.5 344.264C324.564 344.264 335.964 336.679 335.964 327.321" fill="black" fill-opacity="0.16"/>
<path fill-rule="evenodd" clip-rule="evenodd" d="M225.959 290.147C229.877 282.102 238.7 276.493 248.956 276.493C259.176 276.493 267.973 282.062 271.912 290.062C273.082 292.439 271.417 294.383 269.737 292.942C264.536 288.479 257.149 285.692 248.956 285.692C241.019 285.692 233.839 288.308 228.669 292.529C226.779 294.072 224.813 292.5 225.959 290.147Z" fill="black" fill-opacity="0.6"/>
<path fill-rule="evenodd" clip-rule="evenodd" d="M349.036 290.147C352.955 282.102 361.778 276.493 372.034 276.493C382.254 276.493 391.05 282.062 394.989 290.062C396.16 292.439 394.494 294.383 392.815 292.942C387.614 288.479 380.227 285.692 372.034 285.692C364.097 285.692 356.917 288.308 351.747 292.529C349.857 294.072 347.89 292.5 349.036 290.147Z" fill="black" fill-opacity="0.6"/>
<path fill-rule="evenodd" clip-rule="evenodd" d="M248.001 238.686C235.678 239.254 215.756 248.19 216.269 260.592C216.286 260.998 216.884 261.177 217.176 260.864C223.022 254.597 264.529 248.264 279.149 251.62C280.487 251.927 281.504 250.61 280.656 249.658C273.395 241.508 259.04 238.166 248.001 238.686Z" fill="black" fill-opacity="0.6"/>
<path fill-rule="evenodd" clip-rule="evenodd" d="M375.121 238.686C387.444 239.254 407.366 248.19 406.853 260.592C406.836 260.998 406.238 261.177 405.946 260.864C400.1 254.597 358.593 248.264 343.973 251.62C342.635 251.927 341.618 250.61 342.466 249.658C349.727 241.508 364.082 238.166 375.121 238.686Z" fill="black" fill-opacity="0.6"/>
<mask id="mask5_21_4106" style="mask-type:luminance" maskUnits="userSpaceOnUse" x="30" y="52" width="561" height="593">
<path d="M590.608 52H30.3918V645H590.608V52Z" fill="white"/>
</mask>
<g mask="url(#mask5_21_4106)">
<path fill-rule="evenodd" clip-rule="evenodd" d="M347.484 412.393C342.15 417.251 336.468 419.436 329.286 417.908C328.05 417.646 323.012 408.297 310.5 408.297C297.987 408.297 292.95 417.646 291.713 417.908C284.531 419.436 278.85 417.251 273.516 412.393C263.489 403.258 255.15 390.663 260.161 376.92C262.772 369.757 267.019 361.893 274.745 359.61C282.995 357.174 294.578 359.606 302.892 357.942C305.585 357.402 308.528 356.444 310.5 354.854C312.471 356.444 315.414 357.402 318.107 357.942C326.421 359.606 338.004 357.174 346.254 359.61C353.98 361.893 358.227 369.757 360.839 376.92C365.85 390.663 357.511 403.258 347.484 412.393ZM429.506 259.55C422.269 277.341 425.064 299.489 423.724 318.164C422.637 333.343 419.439 356.094 405.934 365.897C399.028 370.91 386.457 379.336 377.433 376.986C371.221 375.368 370.558 357.586 362.395 350.929C353.135 343.38 341.573 340.063 329.915 340.575C324.884 340.796 314.71 340.743 310.5 344.604C306.289 340.743 296.116 340.796 291.086 340.575C279.427 340.063 267.864 343.38 258.605 350.929C250.442 357.586 249.779 375.368 243.568 376.986C234.544 379.336 221.973 370.91 215.066 365.897C201.56 356.094 198.364 333.343 197.274 318.164C195.936 299.489 198.731 277.341 191.494 259.55C187.973 259.55 190.295 293.709 190.295 293.709V336.82C190.363 369.198 210.627 417.66 255.556 436.164C266.544 440.69 291.434 448.039 310.5 448.039C329.565 448.039 354.455 441.39 365.443 436.864C410.373 418.359 430.637 369.198 430.705 336.82V293.709C430.705 293.709 433.026 259.55 429.506 259.55Z" fill="#331B0C"/>
<mask id="mask6_21_4106" style="mask-type:luminance" maskUnits="userSpaceOnUse" x="189" y="259" width="243" height="190">
<path fill-rule="evenodd" clip-rule="evenodd" d="M347.484 412.393C342.15 417.251 336.468 419.436 329.286 417.908C328.05 417.646 323.012 408.297 310.5 408.297C297.987 408.297 292.95 417.646 291.713 417.908C284.531 419.436 278.85 417.251 273.516 412.393C263.489 403.258 255.15 390.663 260.161 376.92C262.772 369.757 267.019 361.893 274.745 359.61C282.995 357.174 294.578 359.606 302.892 357.942C305.585 357.402 308.528 356.444 310.5 354.854C312.471 356.444 315.414 357.402 318.107 357.942C326.421 359.606 338.004 357.174 346.254 359.61C353.98 361.893 358.227 369.757 360.839 376.92C365.85 390.663 357.511 403.258 347.484 412.393ZM429.506 259.55C422.269 277.341 425.064 299.489 423.724 318.164C422.637 333.343 419.439 356.094 405.934 365.897C399.028 370.91 386.457 379.336 377.433 376.986C371.221 375.368 370.558 357.586 362.395 350.929C353.135 343.38 341.573 340.063 329.915 340.575C324.884 340.796 314.71 340.743 310.5 344.604C306.289 340.743 296.116 340.796 291.086 340.575C279.427 340.063 267.864 343.38 258.605 350.929C250.442 357.586 249.779 375.368 243.568 376.986C234.544 379.336 221.973 370.91 215.066 365.897C201.56 356.094 198.364 333.343 197.274 318.164C195.936 299.489 198.731 277.341 191.494 259.55C187.973 259.55 190.295 293.709 190.295 293.709V336.82C190.363 369.198 210.627 417.66 255.556 436.164C266.544 440.69 291.434 448.039 310.5 448.039C329.565 448.039 354.455 441.39 365.443 436.864C410.373 418.359 430.637 369.198 430.705 336.82V293.709C430.705 293.709 433.026 259.55 429.506 259.55Z" fill="white"/>
</mask>
<g mask="url(#mask6_21_4106)">
<path d="M624.561 204.486H64.3444V721.243H624.561V204.486Z" fill="#4A312C"/>
</g>
<path fill-rule="evenodd" clip-rule="evenodd" d="M418.044 134.488C429.516 124.004 432.278 102.747 425.764 88.9552C417.767 72.0219 401.538 69.9005 385.986 77.3479C371.327 84.3684 358.278 86.7071 342.225 83.3056C326.822 80.0419 312.209 74.2854 296.29 73.34C270.135 71.787 244.724 81.469 226.899 100.984C223.497 104.707 220.757 108.964 218.167 113.279C216.094 116.731 213.758 120.435 212.876 124.414C212.457 126.306 213.237 130.975 212.293 132.525C211.272 134.199 207.421 135.734 205.78 136.977C202.455 139.494 199.575 142.335 196.911 145.548C191.253 152.371 188.139 159.498 185.52 167.937C176.813 195.988 176.075 229.352 187.331 256.896C188.831 260.569 193.481 268.23 196.214 260.365C196.754 258.81 195.504 253.6 195.507 252.032C195.517 246.271 198.703 208.131 212.583 186.766C217.101 179.811 237.99 153.768 242.257 153.559C244.517 157.144 267.466 180.051 327.017 177.366C353.885 176.155 374.548 164.107 379.51 158.884C381.693 170.602 407.08 188.144 410.949 195.362C422.124 216.214 424.603 259.541 428.869 259.46C433.135 259.378 436.197 248.367 437.075 246.265C443.593 230.645 444.703 211.04 444.007 194.253C443.101 172.647 434.165 149.298 418.044 134.488Z" fill="#28354B"/>
<mask id="mask7_21_4106" style="mask-type:luminance" maskUnits="userSpaceOnUse" x="178" y="73" width="267" height="191">
<path fill-rule="evenodd" clip-rule="evenodd" d="M418.044 134.488C429.516 124.004 432.278 102.747 425.764 88.9552C417.767 72.0219 401.538 69.9005 385.986 77.3479C371.327 84.3684 358.278 86.7071 342.225 83.3056C326.822 80.0419 312.209 74.2854 296.29 73.34C270.135 71.787 244.724 81.469 226.899 100.984C223.497 104.707 220.757 108.964 218.167 113.279C216.094 116.731 213.758 120.435 212.876 124.414C212.457 126.306 213.237 130.975 212.293 132.525C211.272 134.199 207.421 135.734 205.78 136.977C202.455 139.494 199.575 142.335 196.911 145.548C191.253 152.371 188.139 159.498 185.52 167.937C176.813 195.988 176.075 229.352 187.331 256.896C188.831 260.569 193.481 268.23 196.214 260.365C196.754 258.81 195.504 253.6 195.507 252.032C195.517 246.271 198.703 208.131 212.583 186.766C217.101 179.811 237.99 153.768 242.257 153.559C244.517 157.144 267.466 180.051 327.017 177.366C353.885 176.155 374.548 164.107 379.51 158.884C381.693 170.602 407.08 188.144 410.949 195.362C422.124 216.214 424.603 259.541 428.869 259.46C433.135 259.378 436.197 248.367 437.075 246.265C443.593 230.645 444.703 211.04 444.007 194.253C443.101 172.647 434.165 149.298 418.044 134.488Z" fill="white"/>
</mask>
<g mask="url(#mask7_21_4106)">
<path d="M588.486 52H28.2698V645H588.486V52Z" fill="#4A312C"/>
</g>
<g filter="url(#filter5_d_21_4106)">
<path d="M244.717 333.675H238.865C209.31 333.675 191.666 317.444 191.666 290.259C191.666 268.29 195.522 246.843 241.597 246.843H247.837C293.912 246.843 297.768 268.29 297.768 290.259C297.768 315.819 275.956 333.675 244.717 333.675ZM241.291 259.55C200.154 259.55 200.154 274.038 200.154 292.38C200.154 307.354 206.767 325.204 238.289 325.204H244.717C270.956 325.204 289.28 311.707 289.28 292.38C289.28 274.038 289.28 259.55 248.143 259.55H241.291Z" fill="#252C2F"/>
<path d="M376.283 333.675H370.431C340.876 333.675 323.232 317.444 323.232 290.259C323.232 268.29 327.088 246.843 373.163 246.843H379.402C425.478 246.843 429.334 268.29 429.334 290.259C429.334 315.819 407.522 333.675 376.283 333.675ZM372.857 259.55C331.72 259.55 331.72 274.038 331.72 292.38C331.72 307.354 338.34 325.204 369.855 325.204H376.283C402.522 325.204 420.846 311.707 420.846 292.38C420.846 274.038 420.846 259.55 379.709 259.55H372.857Z" fill="#252C2F"/>
<path d="M178.838 259.066C180.305 257.636 196.355 246.843 241.534 246.843C279.415 246.843 287.434 250.767 299.572 256.695L300.46 257.132C301.304 257.43 305.62 258.893 310.668 259.054C315.267 258.857 319.2 257.613 320.35 257.214C334.204 250.49 347.765 246.843 379.466 246.843C424.645 246.843 440.695 257.636 442.162 259.066C445.629 259.066 448.432 261.798 448.432 265.178V271.29C448.432 274.669 445.629 277.401 442.162 277.401C442.162 277.401 427.517 277.401 427.517 283.513C427.517 289.625 423.353 274.669 423.353 271.29V265.337C415.707 262.416 402.02 256.979 379.466 256.979C354.338 256.979 341.823 261.426 331.089 265.842L331.209 266.131L331.203 270.338L326.498 281.668L320.687 279.375C320.168 279.17 319.048 278.802 317.495 278.42C313.166 277.354 308.715 277.03 304.779 277.836C303.335 278.132 301.995 278.576 300.766 279.176L295.159 281.91L289.548 270.978L289.798 266.119L289.969 265.706C280.711 261.401 272.175 256.979 241.534 256.979C218.981 256.979 205.294 262.414 197.646 265.335V271.29C197.646 274.669 191.377 289.625 191.377 283.513C191.377 277.401 178.838 277.401 178.838 277.401C175.377 277.401 172.568 274.669 172.568 271.29V265.178C172.568 261.798 175.377 259.066 178.838 259.066Z" fill="#252C2F"/>
</g>
</g>
</g>
</g>
<defs>
<filter id="filter0_d_21_4106" x="484.333" y="249.3" width="171.62" height="171.62" filterUnits="userSpaceOnUse" color-interpolation-filters="sRGB">
<feFlood flood-opacity="0" result="BackgroundImageFix"/>
<feColorMatrix in="SourceAlpha" type="matrix" values="0 0 0 0 0 0 0 0 0 0 0 0 0 0 0 0 0 0 127 0" result="hardAlpha"/>
<feOffset dy="4"/>
<feGaussianBlur stdDeviation="25"/>
<feComposite in2="hardAlpha" operator="out"/>
<feColorMatrix type="matrix" values="0 0 0 0 0 0 0 0 0 0 0 0 0 0 0 0 0 0 0.5 0"/>
<feBlend mode="normal" in2="BackgroundImageFix" result="effect1_dropShadow_21_4106"/>
<feBlend mode="normal" in="SourceGraphic" in2="effect1_dropShadow_21_4106" result="shape"/>
</filter>
<filter id="filter1_d_21_4106" x="-6.10352e-05" y="157.984" width="171.62" height="171.62" filterUnits="userSpaceOnUse" color-interpolation-filters="sRGB">
<feFlood flood-opacity="0" result="BackgroundImageFix"/>
<feColorMatrix in="SourceAlpha" type="matrix" values="0 0 0 0 0 0 0 0 0 0 0 0 0 0 0 0 0 0 127 0" result="hardAlpha"/>
<feOffset dy="4"/>
<feGaussianBlur stdDeviation="25"/>
<feComposite in2="hardAlpha" operator="out"/>
<feColorMatrix type="matrix" values="0 0 0 0 0 0 0 0 0 0 0 0 0 0 0 0 0 0 0.5 0"/>
<feBlend mode="normal" in2="BackgroundImageFix" result="effect1_dropShadow_21_4106"/>
<feBlend mode="normal" in="SourceGraphic" in2="effect1_dropShadow_21_4106" result="shape"/>
</filter>
<filter id="filter2_d_21_4106" x="-6.10352e-05" y="387.169" width="171.62" height="171.62" filterUnits="userSpaceOnUse" color-interpolation-filters="sRGB">
<feFlood flood-opacity="0" result="BackgroundImageFix"/>
<feColorMatrix in="SourceAlpha" type="matrix" values="0 0 0 0 0 0 0 0 0 0 0 0 0 0 0 0 0 0 127 0" result="hardAlpha"/>
<feOffset dy="4"/>
<feGaussianBlur stdDeviation="25"/>
<feComposite in2="hardAlpha" operator="out"/>
<feColorMatrix type="matrix" values="0 0 0 0 0 0 0 0 0 0 0 0 0 0 0 0 0 0 0.5 0"/>
<feBlend mode="normal" in2="BackgroundImageFix" result="effect1_dropShadow_21_4106"/>
<feBlend mode="normal" in="SourceGraphic" in2="effect1_dropShadow_21_4106" result="shape"/>
</filter>
<filter id="filter3_f_21_4106" x="4.4762" y="0" width="610.296" height="610.296" filterUnits="userSpaceOnUse" color-interpolation-filters="sRGB">
<feFlood flood-opacity="0" result="BackgroundImageFix"/>
<feBlend mode="normal" in="SourceGraphic" in2="BackgroundImageFix" result="shape"/>
<feGaussianBlur stdDeviation="25" result="effect1_foregroundBlur_21_4106"/>
</filter>
<filter id="filter4_i_21_4106" x="30.3918" y="52" width="560.216" height="597" filterUnits="userSpaceOnUse" color-interpolation-filters="sRGB">
<feFlood flood-opacity="0" result="BackgroundImageFix"/>
<feBlend mode="normal" in="SourceGraphic" in2="BackgroundImageFix" result="shape"/>
<feColorMatrix in="SourceAlpha" type="matrix" values="0 0 0 0 0 0 0 0 0 0 0 0 0 0 0 0 0 0 127 0" result="hardAlpha"/>
<feOffset dy="4"/>
<feGaussianBlur stdDeviation="2"/>
<feComposite in2="hardAlpha" operator="arithmetic" k2="-1" k3="1"/>
<feColorMatrix type="matrix" values="0 0 0 0 0 0 0 0 0 0 0 0 0 0 0 0 0 0 0.25 0"/>
<feBlend mode="normal" in2="shape" result="effect1_innerShadow_21_4106"/>
</filter>
<filter id="filter5_d_21_4106" x="172.568" y="246.843" width="275.864" height="88.8321" filterUnits="userSpaceOnUse" color-interpolation-filters="sRGB">
<feFlood flood-opacity="0" result="BackgroundImageFix"/>
<feColorMatrix in="SourceAlpha" type="matrix" values="0 0 0 0 0 0 0 0 0 0 0 0 0 0 0 0 0 0 127 0" result="hardAlpha"/>
<feOffset dy="2"/>
<feColorMatrix type="matrix" values="0 0 0 0 0 0 0 0 0 0 0 0 0 0 0 0 0 0 0.2 0"/>
<feBlend mode="normal" in2="BackgroundImageFix" result="effect1_dropShadow_21_4106"/>
<feBlend mode="normal" in="SourceGraphic" in2="effect1_dropShadow_21_4106" result="shape"/>
</filter>
<clipPath id="clip0_21_4106">
<rect width="35.8102" height="35.8102" fill="white" transform="translate(552.238 313.205)"/>
</clipPath>
<clipPath id="clip1_21_4106">
<rect width="35.8102" height="35.8102" fill="white" transform="translate(67.9051 451.074)"/>
</clipPath>
<clipPath id="clip2_21_4106">
<rect width="560.216" height="593" fill="white" transform="translate(30.3918 52)"/>
</clipPath>
</defs>
</svg>
