<svg width="921" height="68" viewBox="0 0 921 68" fill="none" xmlns="http://www.w3.org/2000/svg">
<path d="M52.6208 21.9559C51.9569 21.7274 51.269 21.5112 50.5606 21.3067C50.677 20.8315 50.7839 20.3625 50.8789 19.9015C52.4385 12.3312 51.4188 6.23256 47.9368 4.22462C44.5981 2.29928 39.1378 4.30676 33.6232 9.10594C33.0929 9.56743 32.5612 10.056 32.0296 10.5681C31.6754 10.2293 31.3218 9.9019 30.9691 9.58873C25.1897 4.45713 19.3967 2.29461 15.9181 4.30835C12.5826 6.23928 11.5948 11.9726 12.9986 19.147C13.1342 19.84 13.2927 20.5476 13.4718 21.2672C12.652 21.4999 11.8605 21.748 11.1031 22.012C4.32733 24.3743 0 28.0767 0 31.917C0 35.8833 4.64539 39.8616 11.7029 42.2738C12.2599 42.4642 12.8378 42.6442 13.4333 42.8151C13.24 43.5933 13.0719 44.3558 12.9307 45.0996C11.5922 52.1495 12.6375 57.7474 15.9642 59.6661C19.4003 61.6476 25.1671 59.6109 30.7825 54.7023C31.2264 54.3143 31.6718 53.9028 32.118 53.4715C32.6964 54.0285 33.2738 54.5556 33.8482 55.05C39.2874 59.7306 44.6595 61.6206 47.9831 59.6965C51.4158 57.7093 52.5314 51.6959 51.083 44.3795C50.9724 43.8208 50.8437 43.2499 50.6991 42.6689C51.1041 42.5492 51.5017 42.4256 51.8894 42.2971C59.2263 39.8662 64 35.9363 64 31.917C64 28.0628 59.5331 24.3355 52.6208 21.9559ZM51.0295 39.7019C50.6796 39.8177 50.3205 39.9297 49.9546 40.0383C49.1446 37.4741 48.0514 34.7474 46.7137 31.9303C47.9903 29.1803 49.0412 26.4885 49.8285 23.941C50.4832 24.1304 51.1186 24.3302 51.7309 24.5411C57.6533 26.5799 61.2659 29.5943 61.2659 31.917C61.2659 34.3911 57.3644 37.6028 51.0295 39.7019ZM48.4009 44.9105C49.0414 48.1457 49.1329 51.0707 48.7086 53.3573C48.3275 55.4119 47.5609 56.7818 46.6131 57.3304C44.5962 58.4979 40.2829 56.9804 35.6313 52.9775C35.098 52.5186 34.5609 52.0286 34.0221 51.5101C35.8254 49.5378 37.6277 47.2449 39.3867 44.6985C42.4807 44.424 45.4037 43.9751 48.0545 43.3623C48.1851 43.889 48.301 44.4055 48.4009 44.9105ZM21.819 57.1287C19.8485 57.8246 18.279 57.8445 17.3303 57.2975C15.3115 56.1331 14.4723 51.6386 15.6171 45.6095C15.7482 44.919 15.9043 44.2098 16.0841 43.4848C18.7059 44.0645 21.6075 44.4817 24.7088 44.7331C26.4797 47.2249 28.3341 49.5152 30.2028 51.5207C29.7945 51.9148 29.3878 52.2901 28.9834 52.6437C26.5003 54.8142 24.012 56.3541 21.819 57.1287ZM12.5872 39.6867C9.46645 38.6201 6.88926 37.2338 5.12272 35.7211C3.53537 34.3617 2.73395 33.0121 2.73395 31.917C2.73395 29.5866 6.20836 26.6141 12.0031 24.5937C12.7062 24.3486 13.4422 24.1175 14.2061 23.9005C15.0069 26.5056 16.0575 29.2293 17.3253 31.9835C16.0411 34.7786 14.9756 37.5457 14.1669 40.1814C13.6223 40.0249 13.0948 39.8601 12.5872 39.6867ZM15.6818 18.622C14.479 12.4751 15.2778 7.83814 17.2879 6.67457C19.429 5.43501 24.1636 7.20236 29.1537 11.6332C29.4727 11.9164 29.7929 12.2129 30.1141 12.5195C28.2546 14.5162 26.4172 16.7893 24.662 19.2664C21.652 19.5454 18.7708 19.9935 16.1217 20.5937C15.9552 19.9237 15.8076 19.2655 15.6818 18.622ZM43.2885 25.4388C42.6552 24.3449 42.0051 23.2769 41.3423 22.2381C43.3843 22.4962 45.3407 22.8389 47.178 23.2582C46.6264 25.026 45.9389 26.8744 45.1296 28.7692C44.5491 27.667 43.9351 26.5557 43.2885 25.4388ZM32.0305 14.4735C33.2916 15.8397 34.5545 17.3651 35.7967 19.0201C34.545 18.961 33.2777 18.9302 32 18.9302C30.7344 18.9302 29.4765 18.9603 28.2325 19.0184C29.4759 17.3788 30.7497 15.8554 32.0305 14.4735ZM20.7005 25.4577C20.0679 26.5546 19.4653 27.6598 18.8938 28.7671C18.0977 26.8789 17.4165 25.0222 16.8601 23.2293C18.6862 22.8207 20.6334 22.4865 22.6624 22.2333C21.9903 23.2817 21.3348 24.3576 20.7005 25.4574V25.4577ZM22.7208 41.7957C20.6245 41.5618 18.648 41.2449 16.8224 40.8476C17.3877 39.0227 18.0839 37.1263 18.8969 35.1974C19.4698 36.3039 20.0748 37.4096 20.7113 38.5089H20.7114C21.3597 39.6289 22.0314 40.7259 22.7208 41.7957ZM32.1062 49.5533C30.8103 48.1551 29.5178 46.6086 28.2555 44.945C29.4809 44.9931 30.7303 45.0177 32 45.0177C33.3045 45.0177 34.5941 44.9883 35.8633 44.9318C34.6171 46.6253 33.3587 48.1743 32.1062 49.5533ZM45.1557 35.0991C46.0111 37.0488 46.7323 38.9353 47.3048 40.7291C45.4492 41.1524 43.4457 41.4934 41.3348 41.7467C41.9991 40.6939 42.655 39.6076 43.2994 38.4901C43.9514 37.3596 44.5704 36.2274 45.1557 35.0991ZM40.9311 37.1242C39.9307 38.8589 38.9036 40.5148 37.8609 42.0779C35.9618 42.2137 33.9997 42.2836 32 42.2836C30.0084 42.2836 28.071 42.2218 26.2055 42.1007C25.1208 40.5171 24.0713 38.8563 23.0773 37.1392H23.0775C22.0861 35.4267 21.1736 33.6998 20.3468 31.9826C21.1734 30.2614 22.0835 28.5326 23.0692 26.8232L23.069 26.8236C24.0573 25.1096 25.0975 23.4569 26.1722 21.8832C28.0756 21.7393 30.0274 21.6643 31.9999 21.6643H32C33.9814 21.6643 35.9357 21.7399 37.8385 21.8851C38.8968 23.4472 39.9299 25.0946 40.9221 26.8088C41.9257 28.5421 42.8475 30.2595 43.6812 31.9438C42.85 33.657 41.9302 35.3916 40.9311 37.1242ZM46.5712 6.59323C48.7143 7.82914 49.5478 12.8136 48.2012 19.3497C48.1153 19.7667 48.0186 20.1915 47.9136 20.622C45.2584 20.0094 42.3751 19.5535 39.3563 19.2703C37.5978 16.766 35.7754 14.4893 33.9462 12.5183C34.438 12.0452 34.9291 11.5941 35.4181 11.1683C40.1431 7.05643 44.5591 5.43296 46.5712 6.59323ZM32 26.202C35.1562 26.202 37.715 28.7606 37.715 31.917C37.715 35.0732 35.1562 37.632 32 37.632C28.8438 37.632 26.285 35.0732 26.285 31.917C26.285 28.7606 28.8438 26.202 32 26.202Z" fill="#7B4AE2" fill-opacity="0.5"/>
<path d="M504.932 62.9622L482.82 56.824L477.843 1H532.089L527.106 56.8147L504.932 62.9622Z" stroke="#7B4AE2" stroke-opacity="0.5" stroke-width="2"/>
<path fill-rule="evenodd" clip-rule="evenodd" d="M519.425 47.7632L519.531 46.5696L521.191 27.9706L521.363 26.0735H495.618L494.972 18.8392H504.954H521.983L522.148 17.2512L522.47 13.6698L522.639 11.7744H504.954H487.251L487.42 13.6698L489.157 33.1381H504.966H513.641L512.821 42.3005L504.965 44.421L497.067 42.305L496.564 36.6706H492.741H489.472L490.462 47.7632L504.933 51.7806L519.425 47.7632Z" fill="#7B4AE2" fill-opacity="0.5"/>
<path fill-rule="evenodd" clip-rule="evenodd" d="M384 0L389.136 57.602L412.183 64L435.293 57.5926L440.434 0H384ZM430.915 53.9685L412.265 59.0994L412.265 51.7678L412.208 51.7811L397.712 47.7674L396.723 36.6823H403.815L404.33 42.309L412.21 44.4253L412.265 44.4171V33.0141L396.374 33.014L395.756 25.9598V25.9598L412.265 18.894L412.265 18.406H395.128L394.502 11.3517H412.193H412.265L412.265 4.79706H435.285L430.915 53.9685Z" fill="#7B4AE2" fill-opacity="0.5"/>
<path fill-rule="evenodd" clip-rule="evenodd" d="M413.403 18.4058L412.265 18.8939V25.9595H412.265V33.0138H420.892L420.108 42.2367L412.265 44.423V51.7731L426.713 47.7594L428.615 25.9595H412.265L429.256 18.4058L429.863 11.3516H412.265V18.3174V18.4058H413.403Z" fill="#7B4AE2" fill-opacity="0.5"/>
<g clip-path="url(#clip0_21_3145)">
<path fill-rule="evenodd" clip-rule="evenodd" d="M251 0H197C194.239 0 192 2.23858 192 5V59C192 61.7614 194.239 64 197 64H251C253.761 64 256 61.7614 256 59V5C256 2.23858 253.761 0 251 0ZM229.63 57.0238V50.1188C230.882 51.169 232.243 51.9565 233.711 52.4815C235.18 53.0067 236.663 53.2692 238.16 53.2692C239.038 53.2692 239.805 53.19 240.46 53.0317C241.115 52.8735 241.662 52.6542 242.101 52.3737C242.54 52.0933 242.868 51.7622 243.083 51.3812C243.299 51 243.408 50.5863 243.408 50.1405C243.408 49.5362 243.235 48.9967 242.889 48.522C242.544 48.0472 242.072 47.6085 241.475 47.2057C240.877 46.803 240.168 46.4147 239.347 46.0407C238.527 45.6665 237.641 45.2855 236.691 44.897C234.272 43.89 232.47 42.66 231.282 41.2072C230.094 39.7542 229.5 37.9992 229.5 35.9422C229.5 34.331 229.824 32.9465 230.472 31.7885C231.12 30.6305 232.001 29.6775 233.117 28.9293C234.233 28.1813 235.525 27.631 236.994 27.2787C238.462 26.9262 240.017 26.75 241.658 26.75C243.271 26.75 244.7 26.847 245.945 27.0413C247.19 27.2355 248.339 27.534 249.389 27.9368V34.3885C248.871 34.029 248.306 33.7125 247.694 33.4393C247.082 33.1658 246.452 32.9392 245.805 32.7595C245.157 32.5795 244.513 32.4465 243.872 32.3602C243.231 32.274 242.623 32.2308 242.047 32.2308C241.255 32.2308 240.535 32.3062 239.888 32.4572C239.24 32.6085 238.693 32.8205 238.246 33.094C237.8 33.3673 237.454 33.6945 237.209 34.0757C236.965 34.457 236.842 34.8848 236.842 35.3595C236.842 35.8775 236.979 36.3413 237.253 36.7513C237.526 37.1613 237.915 37.5498 238.419 37.9165C238.923 38.2835 239.535 38.643 240.255 38.9955C240.975 39.348 241.788 39.711 242.695 40.0853C243.933 40.603 245.045 41.1532 246.032 41.7357C247.018 42.3185 247.863 42.9765 248.569 43.7103C249.274 44.4438 249.814 45.2817 250.188 46.224C250.563 47.1662 250.75 48.2633 250.75 49.5148C250.75 51.241 250.423 52.6903 249.768 53.8625C249.112 55.035 248.223 55.9845 247.1 56.711C245.978 57.4372 244.671 57.9587 243.181 58.2752C241.691 58.5918 240.118 58.75 238.462 58.75C236.763 58.75 235.147 58.6063 233.614 58.3185C232.081 58.0308 230.753 57.5993 229.63 57.0238ZM227 32.9355H218.121V58.25H211.086V32.9355H202.25V27.25H227V32.9355Z" fill="#7B4AE2" fill-opacity="0.5"/>
</g>
<g clip-path="url(#clip1_21_3145)">
<path fill-rule="evenodd" clip-rule="evenodd" d="M96.75 8.75C96.75 4.33172 100.332 0.75 104.75 0.75H151.25C155.668 0.75 159.25 4.33172 159.25 8.75V55.25C159.25 59.6683 155.668 63.25 151.25 63.25H104.75C100.332 63.25 96.75 59.6683 96.75 55.25V8.75ZM113.184 52.9795C113.184 52.9795 113.184 52.9795 113.184 52.9795L113.184 52.9795C114.568 55.9159 117.295 58.3491 121.994 58.3491C127.196 58.3491 130.762 55.5802 130.762 49.4968V32.3803C130.762 30.7584 129.447 29.4436 127.825 29.4436C126.203 29.4436 124.889 30.7584 124.889 32.3803V49.4138C124.889 52.3503 123.672 53.1053 121.742 53.1053C118.935 53.1053 115.98 51.2873 113.579 52.7405L113.184 52.9795L113.184 52.9795C113.184 52.9794 113.184 52.9794 113.184 52.9795ZM140.506 51.7441C139.318 50.731 137.657 50.2054 136.306 50.9877C134.985 51.7523 134.462 53.4524 135.471 54.5968C137.441 56.8303 140.482 58.3496 144.65 58.3496C150.23 58.3496 154.384 55.4551 154.384 50.1686C154.384 45.2601 151.573 43.0788 146.58 40.939L145.112 40.3097C142.595 39.2188 141.504 38.5055 141.504 36.7434C141.504 35.3172 142.595 34.2264 144.315 34.2264C145.031 34.2264 145.641 34.3564 146.182 34.6457C147.557 35.3802 149.198 36.0319 150.51 35.1898C151.718 34.4141 152.148 32.7845 151.165 31.7382C149.406 29.8663 147.166 29.1077 144.315 29.1077C139.07 29.1077 135.714 32.4642 135.714 36.8693C135.714 41.6522 138.525 43.9177 142.763 45.7213L144.231 46.3511C146.916 47.5254 148.51 48.2387 148.51 50.2525C148.51 51.9307 146.958 53.1474 144.525 53.1474C142.801 53.1474 141.523 52.6117 140.506 51.7441Z" fill="#7B4AE2" fill-opacity="0.5"/>
</g>
<g clip-path="url(#clip2_21_3145)">
<path fill-rule="evenodd" clip-rule="evenodd" d="M590.417 4C584.529 4 579.75 8.77867 579.75 14.6667C579.75 20.5547 584.529 25.3333 590.417 25.3333C584.529 25.3333 579.75 30.112 579.75 36C579.75 41.888 584.529 46.6667 590.417 46.6667C584.529 46.6667 579.75 51.4453 579.75 57.3333C579.75 63.2213 584.529 68 590.417 68C596.305 68 601.083 63.2213 601.083 57.3333L601.083 36C601.083 41.888 605.862 46.6667 611.75 46.6667C617.638 46.6667 622.417 41.888 622.417 36C622.417 30.112 617.638 25.3333 611.75 25.3333C617.638 25.3333 622.417 20.5547 622.417 14.6667C622.417 8.77867 617.638 4 611.75 4H590.417ZM611.75 25.3333H601.083L601.083 36C601.083 30.112 605.862 25.3333 611.75 25.3333Z" fill="#7B4AE2" fill-opacity="0.5"/>
</g>
<path d="M317.904 1.01722C317.767 1.02973 317.329 1.07352 316.935 1.1048C307.844 1.92423 299.33 6.82829 293.937 14.3658C290.934 18.5568 289.013 23.3107 288.288 28.3461C288.031 30.1039 288 30.623 288 33.0063C288 35.3895 288.031 35.9087 288.288 37.6664C290.027 49.6826 298.579 59.7785 310.178 63.5191C312.255 64.1884 314.445 64.645 316.935 64.9202C317.904 65.0266 322.096 65.0266 323.065 64.9202C327.363 64.4449 331.004 63.3815 334.596 61.5487C335.146 61.2672 335.252 61.1922 335.177 61.1296C335.127 61.0921 332.781 57.9457 329.966 54.1426L324.848 47.2306L318.436 37.7414C314.908 32.5246 312.005 28.2586 311.98 28.2586C311.955 28.2523 311.93 32.4683 311.917 37.6163C311.898 46.6301 311.892 46.9929 311.779 47.2055C311.617 47.5121 311.492 47.6372 311.229 47.7748C311.029 47.8749 310.854 47.8936 309.909 47.8936H308.827L308.539 47.7122C308.351 47.5934 308.213 47.437 308.12 47.2556L307.988 46.9741L308.001 34.4324L308.02 21.8845L308.213 21.6406C308.314 21.5092 308.526 21.3403 308.676 21.259C308.933 21.1339 309.033 21.1214 310.115 21.1214C311.392 21.1214 311.604 21.1714 311.936 21.5342C312.03 21.6343 315.502 26.8637 319.656 33.1626C323.81 39.4616 329.491 48.0625 332.281 52.2848L337.348 59.9599L337.605 59.791C339.876 58.3148 342.278 56.213 344.18 54.0237C348.228 49.3761 350.836 43.7089 351.712 37.6664C351.969 35.9087 352 35.3895 352 33.0063C352 30.623 351.969 30.1039 351.712 28.3461C349.973 16.3299 341.421 6.23405 329.822 2.49345C327.776 1.8304 325.599 1.37377 323.159 1.09854C322.559 1.03599 318.423 0.967181 317.904 1.01722ZM331.004 20.3708C331.305 20.5209 331.549 20.8086 331.636 21.1089C331.686 21.2715 331.699 24.7494 331.686 32.5872L331.668 43.834L329.684 40.794L327.695 37.754V29.5784C327.695 24.2928 327.72 21.3216 327.758 21.1777C327.858 20.8274 328.077 20.5522 328.377 20.3895C328.633 20.2582 328.727 20.2457 329.709 20.2457C330.635 20.2457 330.798 20.2582 331.004 20.3708Z" fill="#7B4AE2" fill-opacity="0.5"/>
<path fill-rule="evenodd" clip-rule="evenodd" d="M697 5.5C679.743 5.5 665.75 19.4909 665.75 36.7503C665.75 50.5574 674.704 62.2714 687.121 66.4035C688.683 66.6928 689.256 65.7256 689.256 64.9002C689.256 64.155 689.227 61.6933 689.214 59.0821C680.52 60.9725 678.685 55.395 678.685 55.395C677.264 51.7829 675.215 50.8224 675.215 50.8224C672.38 48.8828 675.429 48.9227 675.429 48.9227C678.567 49.1431 680.22 52.143 680.22 52.143C683.007 56.9205 687.53 55.5393 689.313 54.7408C689.594 52.7211 690.404 51.3425 691.298 50.5621C684.356 49.7719 677.06 47.0923 677.06 35.1181C677.06 31.7063 678.281 28.9185 680.28 26.7301C679.955 25.943 678.885 22.7645 680.582 18.46C680.582 18.46 683.207 17.6202 689.178 21.6633C691.671 20.9709 694.344 20.6237 697 20.6118C699.656 20.6237 702.331 20.9709 704.829 21.6633C710.793 17.6202 713.414 18.46 713.414 18.46C715.115 22.7645 714.045 25.943 713.72 26.7301C715.724 28.9185 716.937 31.7063 716.937 35.1181C716.937 47.1208 709.626 49.7636 702.667 50.5373C703.788 51.507 704.787 53.4088 704.787 56.3244C704.787 60.5057 704.751 63.8709 704.751 64.9002C704.751 65.7318 705.313 66.7063 706.897 66.3994C719.307 62.2626 728.25 50.5528 728.25 36.7503C728.25 19.4909 714.259 5.5 697 5.5ZM677.454 50.0167C677.385 50.1719 677.141 50.2185 676.919 50.1119C676.692 50.0099 676.565 49.7983 676.638 49.6425C676.705 49.4826 676.95 49.4381 677.176 49.5452C677.404 49.6472 677.533 49.8609 677.454 50.0167ZM678.991 51.3882C678.842 51.5264 678.551 51.4622 678.353 51.2439C678.149 51.026 678.111 50.7347 678.262 50.5944C678.415 50.4562 678.698 50.5209 678.903 50.7388C679.107 50.9592 679.147 51.2485 678.991 51.3882ZM680.046 53.1432C679.854 53.2761 679.541 53.1514 679.348 52.8735C679.156 52.5956 679.156 52.2624 679.352 52.1289C679.546 51.9954 679.854 52.1154 680.051 52.3912C680.242 52.6738 680.242 53.007 680.046 53.1432ZM681.829 55.1756C681.658 55.3645 681.293 55.3138 681.026 55.056C680.753 54.804 680.677 54.4464 680.849 54.2575C681.022 54.0681 681.389 54.1214 681.658 54.3771C681.929 54.6286 682.012 54.9888 681.829 55.1756ZM684.134 55.8617C684.059 56.1065 683.707 56.2177 683.354 56.1137C683 56.0066 682.769 55.7199 682.84 55.4726C682.914 55.2262 683.267 55.1103 683.623 55.2216C683.976 55.3282 684.208 55.6128 684.134 55.8617ZM686.758 56.1527C686.766 56.4105 686.466 56.6242 686.095 56.6288C685.721 56.6371 685.419 56.4286 685.415 56.175C685.415 55.9147 685.708 55.703 686.082 55.6968C686.453 55.6896 686.758 55.8966 686.758 56.1527ZM689.335 56.054C689.379 56.3055 689.121 56.5637 688.752 56.6325C688.389 56.6988 688.053 56.5435 688.007 56.2941C687.962 56.0364 688.225 55.7781 688.587 55.7114C688.957 55.6472 689.287 55.7983 689.335 56.054Z" fill="#7B4AE2" fill-opacity="0.5"/>
<path fill-rule="evenodd" clip-rule="evenodd" d="M823.794 33.1489L795.85 5.20714C794.242 3.59762 791.632 3.59762 790.022 5.20714L784.219 11.0097L791.58 18.3705C793.291 17.7925 795.252 18.1802 796.616 19.5439C797.986 20.9161 798.37 22.8942 797.779 24.6105L804.872 31.7044C806.589 31.1132 808.569 31.4959 809.94 32.8687C811.855 34.7837 811.855 37.8876 809.94 39.804C808.023 41.7204 804.92 41.7204 803.002 39.804C801.561 38.3616 801.205 36.2451 801.935 34.4698L795.319 27.8541L795.319 45.2638C795.786 45.4956 796.227 45.8039 796.616 46.1915C798.531 48.1065 798.531 51.2103 796.616 53.1281C794.699 55.0438 791.594 55.0438 789.68 53.1281C787.765 51.2103 787.765 48.1065 789.68 46.1915C790.154 45.7189 790.701 45.3614 791.286 45.1213V27.5493C790.701 27.3106 790.154 26.9553 789.68 26.4791C788.229 25.0297 787.88 22.8999 788.624 21.1176L781.368 13.8607L762.208 33.0197C760.597 34.6306 760.597 37.2408 762.208 38.8504L790.152 66.7929C791.76 68.4024 794.37 68.4024 795.981 66.7929L823.794 38.9803C825.404 37.3701 825.404 34.7585 823.794 33.1489Z" fill="#7B4AE2" fill-opacity="0.5"/>
<g clip-path="url(#clip3_21_3145)">
<path d="M889 4C871.327 4 857 18.3269 857 36C857 53.6732 871.327 68 889 68C906.673 68 921 53.6732 921 36C921 18.3269 906.673 4 889 4ZM889 7.25424C904.876 7.25424 917.746 20.1242 917.746 36C917.746 51.8758 904.876 64.7458 889 64.7458C873.124 64.7458 860.254 51.8758 860.254 36C860.254 20.1242 873.124 7.25424 889 7.25424Z" fill="#7B4AE2" fill-opacity="0.5"/>
<path d="M889.361 13.2202C901.942 13.2202 912.141 23.419 912.141 35.9999C912.141 48.5807 901.942 58.7795 889.361 58.7795C876.781 58.7795 866.582 48.5807 866.582 35.9999C866.582 32.9253 867.191 29.9929 868.295 27.3167C869.907 29.5123 872.508 30.9377 875.441 30.9377C880.333 30.9377 884.299 26.9715 884.299 22.079C884.299 19.146 882.874 16.5459 880.678 14.9336C883.354 13.8294 886.287 13.2202 889.361 13.2202Z" fill="#7B4AE2" fill-opacity="0.5"/>
</g>
<defs>
<clipPath id="clip0_21_3145">
<rect width="64" height="64" fill="white" transform="translate(192)"/>
</clipPath>
<clipPath id="clip1_21_3145">
<rect x="96" width="64" height="64" rx="8" fill="white"/>
</clipPath>
<clipPath id="clip2_21_3145">
<rect width="64" height="64" fill="white" transform="translate(569 4)"/>
</clipPath>
<clipPath id="clip3_21_3145">
<rect width="64" height="64" fill="white" transform="translate(857 4)"/>
</clipPath>
</defs>
</svg>
