<?xml version="1.0" encoding="utf-8"?>
<!-- Generator: Adobe Illustrator 26.3.1, SVG Export Plug-In . SVG Version: 6.00 Build 0)  -->
<svg version="1.1" id="Camada_1" xmlns="http://www.w3.org/2000/svg" xmlns:xlink="http://www.w3.org/1999/xlink" x="0px" y="0px"
	 viewBox="0 0 656 645" style="enable-background:new 0 0 656 645;" xml:space="preserve">
<style type="text/css">
	.st0{fill:#7B4AE2;fill-opacity:0.2;}
	.st1{display:none;}
	.st2{display:inline;}
	.st3{fill:#090E16;}
	.st4{clip-path:url(#SVGID_00000011718009958718500970000003140242551021252753_);}
	.st5{fill-rule:evenodd;clip-rule:evenodd;fill:#7B4AE2;fill-opacity:0.5;}
	.st6{display:inline;fill:#7B4AE2;fill-opacity:0.5;}
	.st7{clip-path:url(#SVGID_00000004539906662528575620000003062671760979998618_);}
	.st8{fill-rule:evenodd;clip-rule:evenodd;fill:#7B4AE2;}
	.st9{display:inline;fill-rule:evenodd;clip-rule:evenodd;fill:#7B4AE2;}
	.st10{clip-path:url(#SVGID_00000031196363253185085530000013415801687925976707_);}
	.st11{fill:#D0C6AC;}
	.st12{fill:#FFFFFF;filter:url(#Adobe_OpacityMaskFilter);}
	.st13{mask:url(#mask0_21_4106_00000044868972203435526640000003600915308288380576_);}
	.st14{fill:#EDB98A;}
	.st15{fill:#FFFFFF;filter:url(#Adobe_OpacityMaskFilter_00000085929118094806455080000015462490657548948368_);}
	.st16{mask:url(#mask1_21_4106_00000070093642810874497170000000188848374189191062_);}
	.st17{fill-rule:evenodd;clip-rule:evenodd;fill-opacity:0.1;}
	
		.st18{fill-rule:evenodd;clip-rule:evenodd;fill:#FFFFFF;filter:url(#Adobe_OpacityMaskFilter_00000028286044932961510750000007465418650314520247_);}
	.st19{mask:url(#mask2_21_4106_00000111176594694315175690000008097633214617713065_);}
	.st20{fill:#25557C;}
	
		.st21{fill-rule:evenodd;clip-rule:evenodd;fill:#FFFFFF;filter:url(#Adobe_OpacityMaskFilter_00000134225132761165515480000002381713849683870900_);}
	.st22{mask:url(#mask3_21_4106_00000028300460910134839430000011207780089390125233_);}
	.st23{fill-rule:evenodd;clip-rule:evenodd;fill:#F4F4F4;}
	
		.st24{fill-rule:evenodd;clip-rule:evenodd;fill:#FFFFFF;filter:url(#Adobe_OpacityMaskFilter_00000074407522742481772990000002416035765126027922_);}
	.st25{mask:url(#mask4_21_4106_00000106143215863384237650000014363747333410866327_);}
	.st26{fill-rule:evenodd;clip-rule:evenodd;fill-opacity:0.16;}
	.st27{fill-opacity:0.6;}
	.st28{fill-rule:evenodd;clip-rule:evenodd;fill-opacity:0.6;}
	.st29{fill:#FFFFFF;filter:url(#Adobe_OpacityMaskFilter_00000111175309065002860870000018253060899511604142_);}
	.st30{mask:url(#mask5_21_4106_00000110450274565801280290000014098644422162681773_);}
	.st31{fill-rule:evenodd;clip-rule:evenodd;fill:#331B0C;}
	
		.st32{fill-rule:evenodd;clip-rule:evenodd;fill:#FFFFFF;filter:url(#Adobe_OpacityMaskFilter_00000060017059447122894070000015735454672192245380_);}
	.st33{mask:url(#mask6_21_4106_00000168092214612441667350000014715066611109059256_);}
	.st34{fill:#4A312C;}
	.st35{fill-rule:evenodd;clip-rule:evenodd;fill:#28354B;}
	
		.st36{fill-rule:evenodd;clip-rule:evenodd;fill:#FFFFFF;filter:url(#Adobe_OpacityMaskFilter_00000109709149070149141490000014351354372680294572_);}
	.st37{mask:url(#mask7_21_4106_00000155112573956818328630000009073300257831562897_);}
	.st38{fill:#252C2F;}
</style>
<path class="st0" d="M565.7,309.7C565.7,167.4,450.2,52,307.8,52C165.4,52,50,167.4,50,309.7s115.4,257.7,257.8,257.7
	C450.2,567.4,565.7,452,565.7,309.7z"/>
<g>
	<circle class="st0" cx="309.6" cy="305.1" r="255.1"/>
</g>
<g class="st1">
	<g class="st2">
		<circle class="st3" cx="570.1" cy="322.5" r="35.8"/>
	</g>
	<g class="st2">
		<defs>
			<rect id="SVGID_1_" x="552.2" y="304.6" width="35.8" height="35.8"/>
		</defs>
		<clipPath id="SVGID_00000103982819241628525160000003505628168089390010_">
			<use xlink:href="#SVGID_1_"  style="overflow:visible;"/>
		</clipPath>
		<g style="clip-path:url(#SVGID_00000103982819241628525160000003505628168089390010_);">
			<path class="st5" d="M585.3,304.6H555c-1.5,0-2.8,1.3-2.8,2.8v30.2c0,1.5,1.3,2.8,2.8,2.8h30.2c1.5,0,2.8-1.3,2.8-2.8v-30.2
				C588,305.8,586.8,304.6,585.3,304.6z M573.3,336.5v-3.9c0.7,0.6,1.5,1,2.3,1.3c0.8,0.3,1.7,0.4,2.5,0.4c0.5,0,0.9,0,1.3-0.1
				c0.4-0.1,0.7-0.2,0.9-0.4c0.2-0.2,0.4-0.3,0.5-0.6c0.1-0.2,0.2-0.4,0.2-0.7c0-0.3-0.1-0.6-0.3-0.9c-0.2-0.3-0.5-0.5-0.8-0.7
				c-0.3-0.2-0.7-0.4-1.2-0.7c-0.5-0.2-1-0.4-1.5-0.6c-1.4-0.6-2.4-1.3-3-2.1c-0.7-0.8-1-1.8-1-2.9c0-0.9,0.2-1.7,0.5-2.3
				c0.4-0.6,0.9-1.2,1.5-1.6c0.6-0.4,1.3-0.7,2.2-0.9c0.8-0.2,1.7-0.3,2.6-0.3c0.9,0,1.7,0.1,2.4,0.2c0.7,0.1,1.3,0.3,1.9,0.5v3.6
				c-0.3-0.2-0.6-0.4-0.9-0.5c-0.3-0.2-0.7-0.3-1.1-0.4c-0.4-0.1-0.7-0.2-1.1-0.2c-0.4,0-0.7-0.1-1-0.1c-0.4,0-0.8,0-1.2,0.1
				c-0.4,0.1-0.7,0.2-0.9,0.4c-0.2,0.2-0.4,0.3-0.6,0.6c-0.1,0.2-0.2,0.5-0.2,0.7c0,0.3,0.1,0.5,0.2,0.8c0.2,0.2,0.4,0.4,0.7,0.7
				c0.3,0.2,0.6,0.4,1,0.6c0.4,0.2,0.9,0.4,1.4,0.6c0.7,0.3,1.3,0.6,1.9,0.9c0.6,0.3,1,0.7,1.4,1.1c0.4,0.4,0.7,0.9,0.9,1.4
				c0.2,0.5,0.3,1.1,0.3,1.8c0,1-0.2,1.8-0.6,2.4c-0.4,0.7-0.9,1.2-1.5,1.6c-0.6,0.4-1.4,0.7-2.2,0.9c-0.8,0.2-1.7,0.3-2.6,0.3
				c-1,0-1.9-0.1-2.7-0.2C574.7,337.1,573.9,336.8,573.3,336.5z M571.8,323h-5v14.2h-3.9V323H558v-3.2h13.8V323z"/>
		</g>
	</g>
</g>
<g class="st1">
	<g class="st2">
		<circle class="st3" cx="74.9" cy="273.1" r="35.8"/>
	</g>
	<path class="st6" d="M88.3,266.8c-0.4-0.1-0.9-0.3-1.3-0.4c0.1-0.3,0.1-0.6,0.2-0.9c1-4.8,0.3-8.6-1.9-9.9c-2.1-1.2-5.5,0.1-9,3.1
		c-0.3,0.3-0.7,0.6-1,0.9c-0.2-0.2-0.4-0.4-0.7-0.6c-3.6-3.2-7.3-4.6-9.5-3.3c-2.1,1.2-2.7,4.8-1.8,9.3c0.1,0.4,0.2,0.9,0.3,1.3
		c-0.5,0.1-1,0.3-1.5,0.5c-4.3,1.5-7,3.8-7,6.2c0,2.5,2.9,5,7.4,6.5c0.4,0.1,0.7,0.2,1.1,0.3c-0.1,0.5-0.2,1-0.3,1.4
		c-0.8,4.4-0.2,8,1.9,9.2c2.2,1.2,5.8,0,9.3-3.1c0.3-0.2,0.6-0.5,0.8-0.8c0.4,0.4,0.7,0.7,1.1,1c3.4,2.9,6.8,4.1,8.9,2.9
		c2.2-1.2,2.9-5,1.9-9.6c-0.1-0.4-0.2-0.7-0.2-1.1c0.3-0.1,0.5-0.2,0.7-0.2c4.6-1.5,7.6-4,7.6-6.5C95.4,270.6,92.6,268.3,88.3,266.8
		z M87.3,278c-0.2,0.1-0.4,0.1-0.7,0.2c-0.5-1.6-1.2-3.3-2-5.1c0.8-1.7,1.5-3.4,2-5c0.4,0.1,0.8,0.2,1.2,0.4c3.7,1.3,6,3.2,6,4.6
		C93.7,274.6,91.2,276.6,87.3,278z M85.6,281.2c0.4,2,0.5,3.9,0.2,5.3c-0.2,1.3-0.7,2.2-1.3,2.5c-1.3,0.7-4-0.2-6.9-2.7
		c-0.3-0.3-0.7-0.6-1-0.9c1.1-1.2,2.3-2.7,3.4-4.3c1.9-0.2,3.8-0.5,5.5-0.8C85.5,280.6,85.5,280.9,85.6,281.2z M68.9,288.9
		c-1.2,0.4-2.2,0.5-2.8,0.1c-1.3-0.7-1.8-3.6-1.1-7.4c0.1-0.4,0.2-0.9,0.3-1.3c1.6,0.4,3.5,0.6,5.4,0.8c1.1,1.6,2.3,3,3.5,4.3
		c-0.3,0.2-0.5,0.5-0.8,0.7C71.8,287.5,70.3,288.4,68.9,288.9z M63.1,278c-2-0.7-3.6-1.5-4.7-2.5c-1-0.9-1.5-1.7-1.5-2.4
		c0-1.5,2.2-3.3,5.8-4.6c0.4-0.2,0.9-0.3,1.4-0.4c0.5,1.6,1.2,3.4,2,5.1c-0.8,1.8-1.5,3.5-2,5.2C63.7,278.2,63.4,278.1,63.1,278z
		 M65,264.7c-0.8-3.9-0.3-6.8,1-7.5c1.3-0.8,4.3,0.3,7.5,3.1c0.2,0.2,0.4,0.4,0.6,0.6c-1.2,1.3-2.3,2.7-3.4,4.2
		c-1.9,0.2-3.7,0.5-5.4,0.8C65.2,265.5,65.1,265.1,65,264.7z M82.4,269c-0.4-0.7-0.8-1.4-1.2-2c1.3,0.2,2.5,0.4,3.7,0.6
		c-0.3,1.1-0.8,2.3-1.3,3.5C83.2,270.4,82.8,269.7,82.4,269z M75.3,262.1c0.8,0.9,1.6,1.8,2.4,2.9c-0.8,0-1.6-0.1-2.4-0.1
		c-0.8,0-1.6,0-2.4,0.1C73.7,263.9,74.5,263,75.3,262.1z M68.2,269c-0.4,0.7-0.8,1.4-1.1,2.1c-0.5-1.2-0.9-2.4-1.3-3.5
		c1.1-0.3,2.4-0.5,3.6-0.6C69,267.6,68.6,268.3,68.2,269L68.2,269z M69.4,279.3c-1.3-0.1-2.6-0.3-3.7-0.6c0.4-1.1,0.8-2.3,1.3-3.6
		c0.4,0.7,0.7,1.4,1.1,2.1h0C68.6,277.9,69,278.6,69.4,279.3z M75.3,284.2c-0.8-0.9-1.6-1.9-2.4-2.9c0.8,0,1.6,0,2.4,0
		c0.8,0,1.6,0,2.4-0.1C76.9,282.3,76.1,283.3,75.3,284.2z M83.6,275.1c0.5,1.2,1,2.4,1.4,3.5c-1.2,0.3-2.4,0.5-3.8,0.6
		c0.4-0.7,0.8-1.3,1.2-2C82.8,276.5,83.2,275.8,83.6,275.1z M80.9,276.3c-0.6,1.1-1.3,2.1-1.9,3.1c-1.2,0.1-2.4,0.1-3.7,0.1
		c-1.3,0-2.5,0-3.6-0.1c-0.7-1-1.3-2-2-3.1h0c-0.6-1.1-1.2-2.2-1.7-3.2c0.5-1.1,1.1-2.2,1.7-3.2h0c0.6-1.1,1.3-2.1,2-3.1
		c1.2-0.1,2.4-0.1,3.7-0.1h0c1.2,0,2.5,0,3.7,0.1c0.7,1,1.3,2,1.9,3.1c0.6,1.1,1.2,2.2,1.7,3.2C82.1,274.2,81.5,275.3,80.9,276.3z
		 M84.4,257.1c1.3,0.8,1.9,3.9,1,8c-0.1,0.3-0.1,0.5-0.2,0.8c-1.7-0.4-3.5-0.7-5.4-0.8c-1.1-1.6-2.3-3-3.4-4.2
		c0.3-0.3,0.6-0.6,0.9-0.8C80.4,257.4,83.2,256.4,84.4,257.1z M75.3,269.5c2,0,3.6,1.6,3.6,3.6c0,2-1.6,3.6-3.6,3.6
		c-2,0-3.6-1.6-3.6-3.6C71.7,271.1,73.3,269.5,75.3,269.5z"/>
</g>
<g class="st1">
	<g class="st2">
		<circle class="st3" cx="143.3" cy="117.8" r="35.8"/>
	</g>
	<path class="st6" d="M142,97.8c-0.1,0-0.4,0-0.6,0.1c-5.7,0.5-11,3.6-14.4,8.3c-1.9,2.6-3.1,5.6-3.5,8.7c-0.2,1.1-0.2,1.4-0.2,2.9
		c0,1.5,0,1.8,0.2,2.9c1.1,7.5,6.4,13.8,13.7,16.2c1.3,0.4,2.7,0.7,4.2,0.9c0.6,0.1,3.2,0.1,3.8,0c2.7-0.3,5-1,7.2-2.1
		c0.3-0.2,0.4-0.2,0.4-0.3c0,0-1.5-2-3.3-4.4l-3.2-4.3l-4-5.9c-2.2-3.3-4-5.9-4-5.9c0,0,0,2.6,0,5.8c0,5.6,0,5.9-0.1,6
		c-0.1,0.2-0.2,0.3-0.3,0.4c-0.1,0.1-0.2,0.1-0.8,0.1h-0.7l-0.2-0.1c-0.1-0.1-0.2-0.2-0.3-0.3l-0.1-0.2l0-7.8l0-7.8l0.1-0.2
		c0.1-0.1,0.2-0.2,0.3-0.2c0.2-0.1,0.2-0.1,0.9-0.1c0.8,0,0.9,0,1.1,0.3c0.1,0.1,2.2,3.3,4.8,7.3c2.6,3.9,6.1,9.3,7.9,12l3.2,4.8
		l0.2-0.1c1.4-0.9,2.9-2.2,4.1-3.6c2.5-2.9,4.2-6.4,4.7-10.2c0.2-1.1,0.2-1.4,0.2-2.9c0-1.5,0-1.8-0.2-2.9
		c-1.1-7.5-6.4-13.8-13.7-16.2c-1.3-0.4-2.6-0.7-4.2-0.9C144.9,97.8,142.3,97.7,142,97.8z M150.2,109.9c0.2,0.1,0.3,0.3,0.4,0.5
		c0,0.1,0,2.3,0,7.2l0,7l-1.2-1.9l-1.2-1.9v-5.1c0-3.3,0-5.2,0-5.3c0.1-0.2,0.2-0.4,0.4-0.5c0.2-0.1,0.2-0.1,0.8-0.1
		C149.9,109.8,150,109.8,150.2,109.9z"/>
</g>
<g class="st1">
	<g class="st2">
		
			<ellipse transform="matrix(0.9985 -5.530039e-02 5.530039e-02 0.9985 -25.3841 5.2976)" class="st3" cx="83" cy="461.3" rx="35.8" ry="35.8"/>
	</g>
	<g class="st2">
		<defs>
			<rect id="SVGID_00000083788590094750343770000004791884109037658254_" x="65.1" y="443.4" width="35.8" height="35.8"/>
		</defs>
		<clipPath id="SVGID_00000083049972726149889700000012147718960747734703_">
			<use xlink:href="#SVGID_00000083788590094750343770000004791884109037658254_"  style="overflow:visible;"/>
		</clipPath>
		<g style="clip-path:url(#SVGID_00000083049972726149889700000012147718960747734703_);">
			<path class="st5" d="M77.1,443.4c-3.3,0-6,2.7-6,6c0,3.3,2.7,6,6,6c-3.3,0-6,2.7-6,6c0,3.3,2.7,6,6,6c-3.3,0-6,2.7-6,6
				c0,3.3,2.7,6,6,6c3.3,0,6-2.7,6-6v-11.9c0,3.3,2.7,6,6,6c3.3,0,6-2.7,6-6c0-3.3-2.7-6-6-6c3.3,0,6-2.7,6-6c0-3.3-2.7-6-6-6H77.1z
				 M89,455.4h-6v6C83.1,458,85.8,455.4,89,455.4z"/>
		</g>
	</g>
</g>
<g class="st1">
	<g class="st2">
		<circle class="st3" cx="506.4" cy="172.7" r="35.8"/>
	</g>
	<g class="st2">
		<g>
			<path class="st8" d="M488.6,159.4c0-2.5,2-4.6,4.6-4.6h26.6c2.5,0,4.6,2,4.6,4.6V186c0,2.5-2,4.6-4.6,4.6h-26.6
				c-2.5,0-4.6-2-4.6-4.6V159.4z M497.9,184.7L497.9,184.7L497.9,184.7c0.8,1.7,2.3,3.1,5,3.1c3,0,5-1.6,5-5.1v-9.8
				c0-0.9-0.8-1.7-1.7-1.7s-1.7,0.8-1.7,1.7v9.7c0,1.7-0.7,2.1-1.8,2.1c-1.6,0-3.3-1-4.7-0.2L497.9,184.7L497.9,184.7
				C497.9,184.7,497.9,184.7,497.9,184.7z M513.5,184c-0.7-0.6-1.6-0.9-2.4-0.4c-0.8,0.4-1.1,1.4-0.5,2.1c1.1,1.3,2.9,2.1,5.2,2.1
				c3.2,0,5.6-1.7,5.6-4.7c0-2.8-1.6-4.1-4.5-5.3l-0.8-0.4c-1.4-0.6-2.1-1-2.1-2c0-0.8,0.6-1.4,1.6-1.4c0.4,0,0.8,0.1,1.1,0.2
				c0.8,0.4,1.7,0.8,2.5,0.3c0.7-0.4,0.9-1.4,0.4-2c-1-1.1-2.3-1.5-3.9-1.5c-3,0-4.9,1.9-4.9,4.4c0,2.7,1.6,4,4,5.1l0.8,0.4
				c1.5,0.7,2.4,1.1,2.4,2.2c0,1-0.9,1.7-2.3,1.7C514.9,184.8,514.1,184.5,513.5,184z"/>
		</g>
	</g>
</g>
<g class="st1">
	<g class="st2">
		<circle class="st3" cx="511.7" cy="464.7" r="35.8"/>
	</g>
	<path class="st9" d="M511.7,443.7c-11.9,0-21.5,9.6-21.5,21.5c0,9.5,6.2,17.6,14.7,20.4c1.1,0.2,1.5-0.5,1.5-1c0-0.5,0-2.2,0-4
		c-6,1.3-7.2-2.5-7.2-2.5c-1-2.5-2.4-3.1-2.4-3.1c-2-1.3,0.1-1.3,0.1-1.3c2.2,0.2,3.3,2.2,3.3,2.2c1.9,3.3,5,2.3,6.3,1.8
		c0.2-1.4,0.8-2.3,1.4-2.9c-4.8-0.5-9.8-2.4-9.8-10.6c0-2.3,0.8-4.3,2.2-5.8c-0.2-0.5-1-2.7,0.2-5.7c0,0,1.8-0.6,5.9,2.2
		c1.7-0.5,3.6-0.7,5.4-0.7c1.8,0,3.7,0.2,5.4,0.7c4.1-2.8,5.9-2.2,5.9-2.2c1.2,3,0.4,5.1,0.2,5.7c1.4,1.5,2.2,3.4,2.2,5.8
		c0,8.3-5,10.1-9.8,10.6c0.8,0.7,1.5,2,1.5,4c0,2.9,0,5.2,0,5.9c0,0.6,0.4,1.2,1.5,1c8.5-2.8,14.7-10.9,14.7-20.4
		C533.2,453.4,523.5,443.7,511.7,443.7z M498.2,474.4c0,0.1-0.2,0.1-0.4,0.1c-0.2-0.1-0.2-0.2-0.2-0.3c0-0.1,0.2-0.1,0.4-0.1
		C498.2,474.1,498.3,474.3,498.2,474.4z M499.3,475.3c-0.1,0.1-0.3,0.1-0.4-0.1c-0.1-0.1-0.2-0.4-0.1-0.4c0.1-0.1,0.3-0.1,0.4,0.1
		C499.4,475,499.4,475.2,499.3,475.3z M500,476.5c-0.1,0.1-0.3,0-0.5-0.2c-0.1-0.2-0.1-0.4,0-0.5c0.1-0.1,0.3,0,0.5,0.2
		C500.1,476.2,500.1,476.4,500,476.5z M501.2,477.9c-0.1,0.1-0.4,0.1-0.6-0.1c-0.2-0.2-0.2-0.4-0.1-0.5c0.1-0.1,0.4-0.1,0.6,0.1
		C501.3,477.5,501.4,477.8,501.2,477.9z M502.8,478.4c-0.1,0.2-0.3,0.2-0.5,0.2c-0.2-0.1-0.4-0.3-0.4-0.4c0.1-0.2,0.3-0.2,0.5-0.2
		C502.7,478,502.9,478.2,502.8,478.4z M504.6,478.6c0,0.2-0.2,0.3-0.5,0.3c-0.3,0-0.5-0.1-0.5-0.3c0-0.2,0.2-0.3,0.5-0.3
		C504.4,478.3,504.6,478.4,504.6,478.6z M506.4,478.5c0,0.2-0.1,0.4-0.4,0.4c-0.2,0-0.5-0.1-0.5-0.2c0-0.2,0.1-0.4,0.4-0.4
		C506.1,478.2,506.4,478.3,506.4,478.5z"/>
</g>
<g>
	<g>
		<defs>
			<rect id="SVGID_00000030463294795344844150000016468103599788781981_" x="30.4" y="52" width="560.2" height="593"/>
		</defs>
		<clipPath id="SVGID_00000181806055716531247780000007073568686677184665_">
			<use xlink:href="#SVGID_00000030463294795344844150000016468103599788781981_"  style="overflow:visible;"/>
		</clipPath>
		<g style="clip-path:url(#SVGID_00000181806055716531247780000007073568686677184665_);">
			<path class="st11" d="M361.4,434.5v38.9h8.5c84.4,0,152.8,68.3,152.8,152.5V645H98.3v-19.1c0-84.2,68.4-152.5,152.8-152.5h8.5
				v-38.9c-36.6-17.3-62.9-52.8-67.3-94.7c-12.4-1.7-21.9-12.3-21.9-25.2V285c0-12.6,9.2-23,21.2-25.1v-13.1
				c0-65.5,53.2-118.6,118.8-118.6s118.8,53.1,118.8,118.6v13.1c12,2,21.2,12.5,21.2,25.1v29.7c0,12.8-9.5,23.4-21.9,25.2
				C424.3,381.7,398,417.2,361.4,434.5z"/>
			<defs>
				<filter id="Adobe_OpacityMaskFilter" filterUnits="userSpaceOnUse" x="98.3" y="128.2" width="560.2" height="593">
					<feColorMatrix  type="matrix" values="1 0 0 0 0  0 1 0 0 0  0 0 1 0 0  0 0 0 1 0"/>
				</filter>
			</defs>
			
				<mask maskUnits="userSpaceOnUse" x="98.3" y="128.2" width="560.2" height="593" id="mask0_21_4106_00000044868972203435526640000003600915308288380576_">
				<path class="st12" d="M361.4,434.5v38.9h8.5c84.4,0,152.8,68.3,152.8,152.5V645H98.3v-19.1c0-84.2,68.4-152.5,152.8-152.5h8.5
					v-38.9c-36.6-17.3-62.9-52.8-67.3-94.7c-12.4-1.7-21.9-12.3-21.9-25.2V285c0-12.6,9.2-23,21.2-25.1v-13.1
					c0-65.5,53.2-118.6,118.8-118.6s118.8,53.1,118.8,118.6v13.1c12,2,21.2,12.5,21.2,25.1v29.7c0,12.8-9.5,23.4-21.9,25.2
					C424.3,381.7,398,417.2,361.4,434.5z"/>
			</mask>
			<g class="st13">
				<path class="st14" d="M658.5,128.2H98.3v593h560.2V128.2z"/>
			</g>
			<defs>
				
					<filter id="Adobe_OpacityMaskFilter_00000096026601214183670420000015457018683401878451_" filterUnits="userSpaceOnUse" x="191.7" y="295.6" width="237.7" height="167.3">
					<feColorMatrix  type="matrix" values="1 0 0 0 0  0 1 0 0 0  0 0 1 0 0  0 0 0 1 0"/>
				</filter>
			</defs>
			
				<mask maskUnits="userSpaceOnUse" x="191.7" y="295.6" width="237.7" height="167.3" id="mask1_21_4106_00000070093642810874497170000000188848374189191062_">
				<path style="fill:#FFFFFF;filter:url(#Adobe_OpacityMaskFilter_00000096026601214183670420000015457018683401878451_);" d="
					M361.4,434.5v38.9h8.5c84.4,0,152.8,68.3,152.8,152.5V645H98.3v-19.1c0-84.2,68.4-152.5,152.8-152.5h8.5v-38.9
					c-36.6-17.3-62.9-52.8-67.3-94.7c-12.4-1.7-21.9-12.3-21.9-25.2V285c0-12.6,9.2-23,21.2-25.1v-13.1
					c0-65.5,53.2-118.6,118.8-118.6s118.8,53.1,118.8,118.6v13.1c12,2,21.2,12.5,21.2,25.1v29.7c0,12.8-9.5,23.4-21.9,25.2
					C424.3,381.7,398,417.2,361.4,434.5z"/>
			</mask>
			<g class="st16">
				<path class="st17" d="M429.3,295.6v48.7c0,65.5-53.2,118.6-118.8,118.6s-118.8-53.1-118.8-118.6v-48.7v31.8
					c0,65.5,53.2,118.6,118.8,118.6s118.8-53.1,118.8-118.6V295.6z"/>
			</g>
			<defs>
				
					<filter id="Adobe_OpacityMaskFilter_00000085960812058248254340000016810071527681753475_" filterUnits="userSpaceOnUse" x="30.4" y="412" width="560.2" height="233">
					<feColorMatrix  type="matrix" values="1 0 0 0 0  0 1 0 0 0  0 0 1 0 0  0 0 0 1 0"/>
				</filter>
			</defs>
			
				<mask maskUnits="userSpaceOnUse" x="30.4" y="412" width="560.2" height="233" id="mask2_21_4106_00000111176594694315175690000008097633214617713065_">
				
					<path style="fill-rule:evenodd;clip-rule:evenodd;fill:#FFFFFF;filter:url(#Adobe_OpacityMaskFilter_00000085960812058248254340000016810071527681753475_);" d="
					M259.6,439.7c-38,4.2-67.3,15.8-67.9,45.7c-54.9,23.1-93.4,77.3-93.4,140.5V645h424.4v-19.1c0-63.2-38.5-117.4-93.4-140.5
					c-0.6-29.8-29.9-41.4-67.9-45.7v40.1c0,28.1-22.8,50.8-50.9,50.8s-50.9-22.8-50.9-50.8V439.7z"/>
			</mask>
			<g class="st19">
				<path class="st20" d="M590.6,412H30.4v233h560.2V412z"/>
			</g>
			<defs>
				
					<filter id="Adobe_OpacityMaskFilter_00000170253876570886197530000007013463744450677169_" filterUnits="userSpaceOnUse" x="232" y="535.2" width="157" height="109.8">
					<feColorMatrix  type="matrix" values="1 0 0 0 0  0 1 0 0 0  0 0 1 0 0  0 0 0 1 0"/>
				</filter>
			</defs>
			
				<mask maskUnits="userSpaceOnUse" x="232" y="535.2" width="157" height="109.8" id="mask3_21_4106_00000028300460910134839430000011207780089390125233_">
				
					<path style="fill-rule:evenodd;clip-rule:evenodd;fill:#FFFFFF;filter:url(#Adobe_OpacityMaskFilter_00000170253876570886197530000007013463744450677169_);" d="
					M259.6,439.7c-38,4.2-67.3,15.8-67.9,45.7c-54.9,23.1-93.4,77.3-93.4,140.5V645h424.4v-19.1c0-63.2-38.5-117.4-93.4-140.5
					c-0.6-29.8-29.9-41.4-67.9-45.7v40.1c0,28.1-22.8,50.8-50.9,50.8s-50.9-22.8-50.9-50.8V439.7z"/>
			</mask>
			<g class="st22">
				<path class="st23" d="M246.8,542.8V645H232V535.2C236.7,538,241.6,540.5,246.8,542.8z M389,535.2v85.5c0,4.1-3.3,7.4-7.4,7.4
					c-4.1,0-7.4-3.3-7.4-7.4v-77.9C379.4,540.5,384.3,538,389,535.2z"/>
			</g>
			<defs>
				
					<filter id="Adobe_OpacityMaskFilter_00000099626213779061252690000010475808175657883067_" filterUnits="userSpaceOnUse" x="169.4" y="439" width="282.2" height="117.1">
					<feColorMatrix  type="matrix" values="1 0 0 0 0  0 1 0 0 0  0 0 1 0 0  0 0 0 1 0"/>
				</filter>
			</defs>
			
				<mask maskUnits="userSpaceOnUse" x="169.4" y="439" width="282.2" height="117.1" id="mask4_21_4106_00000106143215863384237650000014363747333410866327_">
				
					<path style="fill-rule:evenodd;clip-rule:evenodd;fill:#FFFFFF;filter:url(#Adobe_OpacityMaskFilter_00000099626213779061252690000010475808175657883067_);" d="
					M259.6,439.7c-38,4.2-67.3,15.8-67.9,45.7c-54.9,23.1-93.4,77.3-93.4,140.5V645h424.4v-19.1c0-63.2-38.5-117.4-93.4-140.5
					c-0.6-29.8-29.9-41.4-67.9-45.7v40.1c0,28.1-22.8,50.8-50.9,50.8s-50.9-22.8-50.9-50.8V439.7z"/>
			</mask>
			<g class="st25">
				<path class="st26" d="M223.4,439c-31.9,6-54,18-54,41.5c0,41.7,70.1,75.6,141.1,75.6s141.1-33.8,141.1-75.6
					c0-23.4-22.1-35.4-54-41.5c19.3,7.1,31.7,19,31.7,38.9c0,43.2-59,78.2-118.8,78.2s-118.8-35-118.8-78.2
					C191.7,458,204.1,446.1,223.4,439z"/>
			</g>
			<path class="st27" d="M280.8,369.7c0,11.4,13.1,19.1,29.7,19.1s29.7-7.7,29.7-19.1c0-2.3-2-4.2-4.2-4.2c-2.7,0-4,1.9-4.2,4.2
				c-2.6,6.2-9.2,10-21.2,10.6c-12.1-0.6-18.6-4.4-21.2-10.6c-0.3-2.3-1.5-4.2-4.2-4.2C282.8,365.4,280.8,367.3,280.8,369.7z"/>
			<path class="st26" d="M285,327.3c0,9.4,11.4,16.9,25.5,16.9s25.5-7.6,25.5-16.9"/>
			<path class="st28" d="M226,290.1c3.9-8,12.7-13.7,23-13.7c10.2,0,19,5.6,23,13.6c1.2,2.4-0.5,4.3-2.2,2.9
				c-5.2-4.5-12.6-7.2-20.8-7.2c-7.9,0-15.1,2.6-20.3,6.8C226.8,294.1,224.8,292.5,226,290.1z"/>
			<path class="st28" d="M349,290.1c3.9-8,12.7-13.7,23-13.7c10.2,0,19,5.6,23,13.6c1.2,2.4-0.5,4.3-2.2,2.9
				c-5.2-4.5-12.6-7.2-20.8-7.2c-7.9,0-15.1,2.6-20.3,6.8C349.9,294.1,347.9,292.5,349,290.1z"/>
			<path class="st28" d="M248,238.7c-12.3,0.6-32.2,9.5-31.7,21.9c0,0.4,0.6,0.6,0.9,0.3c5.8-6.3,47.4-12.6,62-9.2
				c1.3,0.3,2.4-1,1.5-2C273.4,241.5,259,238.2,248,238.7z"/>
			<path class="st28" d="M375.1,238.7c12.3,0.6,32.2,9.5,31.7,21.9c0,0.4-0.6,0.6-0.9,0.3c-5.8-6.3-47.4-12.6-62-9.2
				c-1.3,0.3-2.4-1-1.5-2C349.7,241.5,364.1,238.2,375.1,238.7z"/>
			<defs>
				
					<filter id="Adobe_OpacityMaskFilter_00000145050424630903827150000003377783754425319296_" filterUnits="userSpaceOnUse" x="28.3" y="52" width="596.3" height="669.2">
					<feColorMatrix  type="matrix" values="1 0 0 0 0  0 1 0 0 0  0 0 1 0 0  0 0 0 1 0"/>
				</filter>
			</defs>
			
				<mask maskUnits="userSpaceOnUse" x="28.3" y="52" width="596.3" height="669.2" id="mask5_21_4106_00000110450274565801280290000014098644422162681773_">
				<path style="fill:#FFFFFF;filter:url(#Adobe_OpacityMaskFilter_00000145050424630903827150000003377783754425319296_);" d="
					M590.6,52H30.4v593h560.2V52z"/>
			</mask>
			<g class="st30">
				<path class="st31" d="M347.5,412.4c-5.3,4.9-11,7-18.2,5.5c-1.2-0.3-6.3-9.6-18.8-9.6c-12.5,0-17.5,9.3-18.8,9.6
					c-7.2,1.5-12.9-0.7-18.2-5.5c-10-9.1-18.4-21.7-13.4-35.5c2.6-7.2,6.9-15,14.6-17.3c8.2-2.4,19.8,0,28.1-1.7
					c2.7-0.5,5.6-1.5,7.6-3.1c2,1.6,4.9,2.5,7.6,3.1c8.3,1.7,19.9-0.8,28.1,1.7c7.7,2.3,12,10.1,14.6,17.3
					C365.9,390.7,357.5,403.3,347.5,412.4z M429.5,259.5c-7.2,17.8-4.4,39.9-5.8,58.6c-1.1,15.2-4.3,37.9-17.8,47.7
					c-6.9,5-19.5,13.4-28.5,11.1c-6.2-1.6-6.9-19.4-15-26.1c-9.3-7.5-20.8-10.9-32.5-10.4c-5,0.2-15.2,0.2-19.4,4
					c-4.2-3.9-14.4-3.8-19.4-4c-11.7-0.5-23.2,2.8-32.5,10.4c-8.2,6.7-8.8,24.4-15,26.1c-9,2.4-21.6-6.1-28.5-11.1
					c-13.5-9.8-16.7-32.6-17.8-47.7c-1.3-18.7,1.5-40.8-5.8-58.6c-3.5,0-1.2,34.2-1.2,34.2v43.1c0.1,32.4,20.3,80.8,65.3,99.3
					c11,4.5,35.9,11.9,54.9,11.9c19.1,0,44-6.6,54.9-11.2c44.9-18.5,65.2-67.7,65.3-100v-43.1C430.7,293.7,433,259.5,429.5,259.5z"
					/>
				<defs>
					
						<filter id="Adobe_OpacityMaskFilter_00000062873835205550990350000005390939548732446382_" filterUnits="userSpaceOnUse" x="64.3" y="204.5" width="560.2" height="516.8">
						<feColorMatrix  type="matrix" values="1 0 0 0 0  0 1 0 0 0  0 0 1 0 0  0 0 0 1 0"/>
					</filter>
				</defs>
				
					<mask maskUnits="userSpaceOnUse" x="64.3" y="204.5" width="560.2" height="516.8" id="mask6_21_4106_00000168092214612441667350000014715066611109059256_">
					
						<path style="fill-rule:evenodd;clip-rule:evenodd;fill:#FFFFFF;filter:url(#Adobe_OpacityMaskFilter_00000062873835205550990350000005390939548732446382_);" d="
						M347.5,412.4c-5.3,4.9-11,7-18.2,5.5c-1.2-0.3-6.3-9.6-18.8-9.6c-12.5,0-17.5,9.3-18.8,9.6c-7.2,1.5-12.9-0.7-18.2-5.5
						c-10-9.1-18.4-21.7-13.4-35.5c2.6-7.2,6.9-15,14.6-17.3c8.2-2.4,19.8,0,28.1-1.7c2.7-0.5,5.6-1.5,7.6-3.1
						c2,1.6,4.9,2.5,7.6,3.1c8.3,1.7,19.9-0.8,28.1,1.7c7.7,2.3,12,10.1,14.6,17.3C365.9,390.7,357.5,403.3,347.5,412.4z
						 M429.5,259.5c-7.2,17.8-4.4,39.9-5.8,58.6c-1.1,15.2-4.3,37.9-17.8,47.7c-6.9,5-19.5,13.4-28.5,11.1
						c-6.2-1.6-6.9-19.4-15-26.1c-9.3-7.5-20.8-10.9-32.5-10.4c-5,0.2-15.2,0.2-19.4,4c-4.2-3.9-14.4-3.8-19.4-4
						c-11.7-0.5-23.2,2.8-32.5,10.4c-8.2,6.7-8.8,24.4-15,26.1c-9,2.4-21.6-6.1-28.5-11.1c-13.5-9.8-16.7-32.6-17.8-47.7
						c-1.3-18.7,1.5-40.8-5.8-58.6c-3.5,0-1.2,34.2-1.2,34.2v43.1c0.1,32.4,20.3,80.8,65.3,99.3c11,4.5,35.9,11.9,54.9,11.9
						c19.1,0,44-6.6,54.9-11.2c44.9-18.5,65.2-67.7,65.3-100v-43.1C430.7,293.7,433,259.5,429.5,259.5z"/>
				</mask>
				<g class="st33">
					<path class="st34" d="M624.6,204.5H64.3v516.8h560.2V204.5z"/>
				</g>
				<path class="st35" d="M418,134.5c11.5-10.5,14.2-31.7,7.7-45.5c-8-16.9-24.2-19.1-39.8-11.6c-14.7,7-27.7,9.4-43.8,6
					c-15.4-3.3-30-9-45.9-10c-26.2-1.6-51.6,8.1-69.4,27.6c-3.4,3.7-6.1,8-8.7,12.3c-2.1,3.5-4.4,7.2-5.3,11.1
					c-0.4,1.9,0.4,6.6-0.6,8.1c-1,1.7-4.9,3.2-6.5,4.5c-3.3,2.5-6.2,5.4-8.9,8.6c-5.7,6.8-8.8,13.9-11.4,22.4
					c-8.7,28.1-9.4,61.4,1.8,89c1.5,3.7,6.2,11.3,8.9,3.5c0.5-1.6-0.7-6.8-0.7-8.3c0-5.8,3.2-43.9,17.1-65.3
					c4.5-7,25.4-33,29.7-33.2c2.3,3.6,25.2,26.5,84.8,23.8c26.9-1.2,47.5-13.3,52.5-18.5c2.2,11.7,27.6,29.3,31.4,36.5
					c11.2,20.9,13.7,64.2,17.9,64.1c4.3-0.1,7.3-11.1,8.2-13.2c6.5-15.6,7.6-35.2,6.9-52C443.1,172.6,434.2,149.3,418,134.5z"/>
				<defs>
					
						<filter id="Adobe_OpacityMaskFilter_00000176014236268333954380000006924455796164896167_" filterUnits="userSpaceOnUse" x="28.3" y="52" width="560.2" height="593">
						<feColorMatrix  type="matrix" values="1 0 0 0 0  0 1 0 0 0  0 0 1 0 0  0 0 0 1 0"/>
					</filter>
				</defs>
				
					<mask maskUnits="userSpaceOnUse" x="28.3" y="52" width="560.2" height="593" id="mask7_21_4106_00000155112573956818328630000009073300257831562897_">
					
						<path style="fill-rule:evenodd;clip-rule:evenodd;fill:#FFFFFF;filter:url(#Adobe_OpacityMaskFilter_00000176014236268333954380000006924455796164896167_);" d="
						M418,134.5c11.5-10.5,14.2-31.7,7.7-45.5c-8-16.9-24.2-19.1-39.8-11.6c-14.7,7-27.7,9.4-43.8,6c-15.4-3.3-30-9-45.9-10
						c-26.2-1.6-51.6,8.1-69.4,27.6c-3.4,3.7-6.1,8-8.7,12.3c-2.1,3.5-4.4,7.2-5.3,11.1c-0.4,1.9,0.4,6.6-0.6,8.1
						c-1,1.7-4.9,3.2-6.5,4.5c-3.3,2.5-6.2,5.4-8.9,8.6c-5.7,6.8-8.8,13.9-11.4,22.4c-8.7,28.1-9.4,61.4,1.8,89
						c1.5,3.7,6.2,11.3,8.9,3.5c0.5-1.6-0.7-6.8-0.7-8.3c0-5.8,3.2-43.9,17.1-65.3c4.5-7,25.4-33,29.7-33.2
						c2.3,3.6,25.2,26.5,84.8,23.8c26.9-1.2,47.5-13.3,52.5-18.5c2.2,11.7,27.6,29.3,31.4,36.5c11.2,20.9,13.7,64.2,17.9,64.1
						c4.3-0.1,7.3-11.1,8.2-13.2c6.5-15.6,7.6-35.2,6.9-52C443.1,172.6,434.2,149.3,418,134.5z"/>
				</mask>
				<g class="st37">
					<path class="st34" d="M588.5,52H28.3v593h560.2V52z"/>
				</g>
				<g>
					<path class="st38" d="M244.7,333.7h-5.9c-29.6,0-47.2-16.2-47.2-43.4c0-22,3.9-43.4,49.9-43.4h6.2c46.1,0,49.9,21.4,49.9,43.4
						C297.8,315.8,276,333.7,244.7,333.7z M241.3,259.5c-41.1,0-41.1,14.5-41.1,32.8c0,15,6.6,32.8,38.1,32.8h6.4
						c26.2,0,44.6-13.5,44.6-32.8c0-18.3,0-32.8-41.1-32.8H241.3z"/>
					<path class="st38" d="M376.3,333.7h-5.9c-29.6,0-47.2-16.2-47.2-43.4c0-22,3.9-43.4,49.9-43.4h6.2c46.1,0,49.9,21.4,49.9,43.4
						C429.3,315.8,407.5,333.7,376.3,333.7z M372.9,259.5c-41.1,0-41.1,14.5-41.1,32.8c0,15,6.6,32.8,38.1,32.8h6.4
						c26.2,0,44.6-13.5,44.6-32.8c0-18.3,0-32.8-41.1-32.8H372.9z"/>
					<path class="st38" d="M178.8,259.1c1.5-1.4,17.5-12.2,62.7-12.2c37.9,0,45.9,3.9,58,9.9l0.9,0.4c0.8,0.3,5.2,1.8,10.2,1.9
						c4.6-0.2,8.5-1.4,9.7-1.8c13.9-6.7,27.4-10.4,59.1-10.4c45.2,0,61.2,10.8,62.7,12.2c3.5,0,6.3,2.7,6.3,6.1v6.1
						c0,3.4-2.8,6.1-6.3,6.1c0,0-14.6,0-14.6,6.1s-4.2-8.8-4.2-12.2v-6c-7.6-2.9-21.3-8.4-43.9-8.4c-25.1,0-37.6,4.4-48.4,8.9
						l0.1,0.3l0,4.2l-4.7,11.3l-5.8-2.3c-0.5-0.2-1.6-0.6-3.2-1c-4.3-1.1-8.8-1.4-12.7-0.6c-1.4,0.3-2.8,0.7-4,1.3l-5.6,2.7
						l-5.6-10.9l0.2-4.9l0.2-0.4c-9.3-4.3-17.8-8.7-48.4-8.7c-22.6,0-36.2,5.4-43.9,8.4v6c0,3.4-6.3,18.3-6.3,12.2
						s-12.5-6.1-12.5-6.1c-3.5,0-6.3-2.7-6.3-6.1v-6.1C172.6,261.8,175.4,259.1,178.8,259.1z"/>
				</g>
			</g>
		</g>
	</g>
</g>
</svg>
