<?xml version="1.0" standalone="no"?>
<!DOCTYPE svg PUBLIC "-//W3C//DTD SVG 20010904//EN"
 "http://www.w3.org/TR/2001/REC-SVG-20010904/DTD/svg10.dtd">
<svg version="1.0" xmlns="http://www.w3.org/2000/svg"
 width="800.000000pt" height="472.000000pt" viewBox="0 0 800.000000 472.000000"
 preserveAspectRatio="xMidYMid meet">

<g transform="translate(0.000000,472.000000) scale(0.100000,-0.100000)"
fill="#000000" stroke="none">
<path d="M576 4500 c-134 -35 -250 -130 -313 -257 -34 -69 -38 -85 -41 -175
-5 -122 11 -172 108 -338 37 -63 181 -313 320 -555 139 -242 308 -532 374
-645 67 -113 200 -341 296 -508 l175 -303 3 1387 c1 763 0 1389 -1 1391 -10 9
-885 12 -921 3z"/>
<path d="M5489 4506 c-2 -3 -30 -7 -61 -10 -32 -3 -68 -8 -80 -11 -13 -3 -41
-8 -63 -11 -57 -8 -65 -10 -110 -22 -22 -6 -49 -13 -60 -15 -11 -2 -27 -7 -35
-10 -8 -3 -60 -22 -115 -43 -260 -95 -525 -273 -705 -474 -41 -46 -69 -80 -62
-76 9 6 12 -256 12 -1295 0 -716 3 -1299 8 -1295 13 13 184 321 517 931 181
330 359 656 398 725 127 227 331 600 507 925 95 176 202 372 238 435 127 227
123 218 104 224 -60 18 -478 36 -493 22z"/>
<path d="M7163 4489 c-381 -56 -714 -219 -991 -483 -232 -222 -228 -215 -912
-1466 -161 -294 -373 -679 -470 -855 -310 -559 -800 -1456 -800 -1465 0 -14
193 -32 354 -32 314 1 576 64 855 207 315 161 600 423 778 715 22 36 166 297
320 580 324 595 330 605 353 645 10 17 207 377 438 800 231 424 490 898 576
1054 86 156 153 288 149 292 -33 30 -466 36 -650 8z"/>
<path d="M1518 3089 c-2 -776 0 -1413 5 -1416 4 -2 7 633 7 1411 0 779 -2
1416 -5 1416 -3 0 -6 -635 -7 -1411z"/>
</g>
</svg>
