<svg width="102" height="86" viewBox="0 0 102 86" fill="none" xmlns="http://www.w3.org/2000/svg">
<path d="M13.7237 84.7133C14.4316 82.2842 15.9215 80.1566 17.962 78.6607C19.0563 77.8362 20.2678 77.1803 21.5564 76.7147C22.9525 76.1865 24.409 75.8343 25.8922 75.6662C26.7554 75.554 26.2922 75.0907 25.2094 74.6907C21.3662 73.3739 17.4255 71.979 13.4458 70.7305C13.6196 70.1444 13.8247 69.5681 14.0602 69.004L14.7479 67.2727L15.5624 65.5998C15.8356 65.0438 16.0843 64.4731 16.4062 63.9464C17.0353 62.8783 17.6011 61.7761 18.3278 60.7665L19.347 59.2205L20.4689 57.7378C23.4741 53.806 26.9887 50.2913 30.9205 47.2861C34.876 44.311 39.1306 41.7563 43.6156 39.6632C48.095 37.5788 52.698 35.7708 57.3985 34.2495C62.5342 32.5572 67.7478 31.0989 72.9419 29.6016C75.5366 28.8505 78.1263 28.1043 80.7063 27.3093C83.2863 26.5143 85.8566 25.6999 88.3342 24.6757C90.8187 23.6913 93.1595 22.3774 95.2938 20.7691C97.426 19.2011 99.1245 17.1167 100.23 14.7118C100.748 13.5082 101.085 12.2344 101.229 10.932C101.392 9.63823 101.354 8.32704 101.117 7.04485C100.644 4.52337 99.2882 2.10438 97.0691 0.899727C96.5863 0.602222 95.801 2.16778 96.1522 2.42139C96.3527 2.54121 96.5436 2.67648 96.7229 2.82611C96.8838 2.98706 97.0447 3.1481 97.2349 3.28954C97.4251 3.43097 97.5227 3.64549 97.6788 3.82107C97.8229 4.00641 97.9533 4.20199 98.069 4.4063C98.567 5.25736 98.9088 6.19056 99.0785 7.1619C99.4259 9.33506 99.1502 11.5623 98.2835 13.5852C98.074 14.0799 97.8295 14.559 97.5519 15.019L97.1082 15.6676C96.9618 15.8919 96.757 16.1065 96.5814 16.3309C95.8341 17.2082 95.0026 18.0102 94.099 18.7256C92.1355 20.1939 89.9873 21.3976 87.7098 22.3055C85.2917 23.2832 82.8256 24.1378 80.321 24.866C70.1083 28.0264 59.5249 30.6307 49.2049 34.6104C45.0756 36.1803 41.0574 38.0281 37.1779 40.1411C36.2122 40.6776 35.2562 41.2532 34.2954 41.8043L31.4765 43.6477L28.7551 45.6376L26.1604 47.7934C22.7543 50.7573 19.7345 54.1375 17.1719 57.8548C14.5649 61.6089 12.5728 65.7545 11.2705 70.1356C8.51151 69.2993 5.70548 68.6267 2.86717 68.1213C2.65699 68.0797 2.43917 68.1036 2.24294 68.1896C1.99909 67.5458 0.721261 67.3897 0.765157 68.1261C0.81331 68.922 0.902931 69.7147 1.03348 70.5013C1.20418 71.306 1.39922 72.0863 1.65283 72.8764C1.88342 73.6535 2.16528 74.4143 2.49657 75.154C2.84772 75.9051 3.23299 76.6318 3.6378 77.3293C4.03465 78.0364 4.48127 78.7144 4.97419 79.3582C5.48141 80.002 6.00807 80.6262 6.55432 81.2115C7.09176 81.7993 7.66693 82.3516 8.27602 82.8648C8.90029 83.3818 9.53915 83.8646 10.1781 84.3084L10.2024 84.4695C10.2365 84.728 10.5585 84.8254 10.9096 84.7961L11.5973 85.2302C12.1777 85.518 13.5482 85.2693 13.7237 84.7133ZM7.876 74.3592C7.95201 74.4201 8.03569 74.4709 8.1248 74.5103L8.43689 74.6274L7.97358 74.5444L7.876 74.3592ZM7.56874 73.7788C7.17369 73.0813 6.77861 72.3742 6.37869 71.6719C6.90054 71.8718 7.42732 72.0474 7.95405 72.223C7.7297 72.5351 7.93945 73.0082 8.71979 73.1642L9.07582 73.2373L8.09057 73.3935C7.97605 73.4018 7.86627 73.4423 7.7739 73.5105C7.68153 73.5787 7.61037 73.6718 7.56874 73.7788ZM22.5513 74.8615L22.3172 74.9103C22.2463 74.8535 22.1675 74.8074 22.0832 74.7737C21.8881 74.6956 21.693 74.6274 21.493 74.5543L22.5513 74.8615ZM20.937 75.2857L20.7273 75.3491C20.7601 75.3309 20.7871 75.304 20.8053 75.2711L20.937 75.2857ZM20.4053 75.4565C19.3248 75.8303 18.2829 76.3072 17.2938 76.8806C17.2373 76.8311 17.175 76.7886 17.1084 76.7538C16.6597 76.5685 16.2111 76.3928 15.7673 76.2124C16.0014 75.9783 15.8647 75.637 15.2356 75.4175L13.9285 74.9492C15.8752 74.8983 17.8215 75.062 19.7324 75.437C19.954 75.4815 20.1815 75.4881 20.4053 75.4565ZM16.3817 77.5293C16.0403 77.7732 15.7136 78.0316 15.4015 78.3047C14.5188 78.0462 13.631 77.7731 12.7483 77.4756C13.0133 77.5164 13.2843 77.4929 13.5384 77.4073L16.3817 77.5293ZM13.9286 79.7971C13.2445 80.6318 12.6601 81.5435 12.1874 82.5137C12.069 82.4252 11.9639 82.32 11.8753 82.2016C12.2655 82.0943 12.5337 81.8845 12.3435 81.6163L12.046 81.1823C12.3049 80.9058 12.6212 80.6893 12.9726 80.5482C13.4652 80.2507 13.1921 79.8995 12.6898 79.7386L13.9286 79.7971ZM9.93908 81.7188C9.07423 80.9248 8.26133 80.076 7.50539 79.1777C6.78248 78.2565 6.12098 77.2888 5.52525 76.2807C4.9048 75.2552 4.3666 74.1822 3.91577 73.0716C3.42776 71.9456 3.01392 70.7888 2.67696 69.6088C2.67696 69.6088 2.716 69.6478 2.76965 69.6429L4.05723 69.955C3.9835 70.013 3.9321 70.0947 3.91166 70.1862C3.89122 70.2778 3.90294 70.3736 3.945 70.4575C4.7546 71.9889 5.6082 73.4958 6.3544 74.8761C6.27636 75.1199 6.41292 75.4126 6.7787 75.6126L7.15425 76.2125C7.01769 76.4466 7.10058 76.7343 7.54927 76.9001C7.98334 77.6366 8.38326 78.3486 8.76367 79.0412C8.76367 79.0412 8.72948 79.0753 8.71485 79.09C8.77152 80.0322 9.19533 80.9146 9.8952 81.548L9.93908 81.7188ZM10.8852 71.6328L10.812 71.9108C9.56848 71.5779 8.34547 71.1724 7.14931 70.6964L10.8852 71.6328ZM13.0165 72.1839L13.1726 72.2229C13.1052 72.2353 13.0407 72.2601 12.9824 72.2961L13.0165 72.1839Z" fill="#a5b4fc"/>
</svg>
